<?xml version="1.0" encoding="UTF-8"?>
<!DOCTYPE svg PUBLIC "-//W3C//DTD SVG 1.1//EN" "http://www.w3.org/Graphics/SVG/1.1/DTD/svg11.dtd">
<svg xmlns="http://www.w3.org/2000/svg" version="1.1" width="500px" height="500px" style="shape-rendering:geometricPrecision; text-rendering:geometricPrecision; image-rendering:optimizeQuality; fill-rule:evenodd; clip-rule:evenodd" xmlns:xlink="http://www.w3.org/1999/xlink">
<g><path style="opacity:0.564" fill="#767b82" d="M 168.5,61.5 C 167.711,61.2172 167.044,60.7172 166.5,60C 130.458,59.1798 94.4584,59.3465 58.5,60.5C 58.6107,59.8826 58.944,59.3826 59.5,59C 95.5,58.3333 131.5,58.3333 167.5,59C 168.252,59.6708 168.586,60.5041 168.5,61.5 Z"/></g>
<g><path style="opacity:0.581" fill="#6c7178" d="M 323.5,59.5 C 323.5,59.1667 323.5,58.8333 323.5,58.5C 358.835,58.3333 394.168,58.5 429.5,59C 431.373,61.1127 432.373,63.6127 432.5,66.5C 432.727,83.1586 432.394,99.8253 431.5,116.5C 431.5,121.833 431.5,127.167 431.5,132.5C 431.5,133.167 431.5,133.833 431.5,134.5C 431.824,141.354 431.491,148.021 430.5,154.5C 430.667,123.498 430.5,92.4982 430,61.5C 429.5,61 429,60.5 428.5,60C 393.502,59.5 358.502,59.3333 323.5,59.5 Z"/></g>
<g><path style="opacity:1" fill="#c1c8d3" d="M 168.5,61.5 C 168.5,92.1667 168.5,122.833 168.5,153.5C 168.047,154.458 167.381,155.292 166.5,156C 130.833,156.667 95.1667,156.667 59.5,156C 58.944,155.617 58.6107,155.117 58.5,154.5C 58.5,123.167 58.5,91.8333 58.5,60.5C 94.4584,59.3465 130.458,59.1798 166.5,60C 167.044,60.7172 167.711,61.2172 168.5,61.5 Z M 74.5,65.5 C 77.8606,66.2032 78.1939,67.5365 75.5,69.5C 73.3576,68.5629 73.0243,67.2296 74.5,65.5 Z"/></g>
<g><path style="opacity:1" fill="#bfc6d1" d="M 297.5,67.5 C 297.5,71.1667 297.5,74.8333 297.5,78.5C 297.5,78.8333 297.5,79.1667 297.5,79.5C 297.5,88.1667 297.5,96.8333 297.5,105.5C 297.5,105.833 297.5,106.167 297.5,106.5C 297.5,115.167 297.5,123.833 297.5,132.5C 297.5,133.167 297.5,133.833 297.5,134.5C 297.665,137.85 297.498,141.183 297,144.5C 296.5,145 296,145.5 295.5,146C 259.495,146.833 223.495,146.667 187.5,145.5C 187.137,144.817 186.804,144.15 186.5,143.5C 186.5,116.167 186.5,88.8333 186.5,61.5C 186.577,60.2502 187.244,59.4169 188.5,59C 224.167,58.3333 259.833,58.3333 295.5,59C 297.314,61.4815 297.98,64.3148 297.5,67.5 Z M 206.5,65.5 C 208.5,65.5 209.5,66.5 209.5,68.5C 208.5,68.5 207.5,68.5 206.5,68.5C 206.5,67.5 206.5,66.5 206.5,65.5 Z"/></g>
<g><path style="opacity:1" fill="#c1c8d3" d="M 323.5,59.5 C 358.502,59.3333 393.502,59.5 428.5,60C 429,60.5 429.5,61 430,61.5C 430.5,92.4982 430.667,123.498 430.5,154.5C 430.389,155.117 430.056,155.617 429.5,156C 393.833,156.667 358.167,156.667 322.5,156C 321.619,155.292 320.953,154.458 320.5,153.5C 320.333,122.832 320.5,92.1649 321,61.5C 321.708,60.6195 322.542,59.9528 323.5,59.5 Z"/></g>
<g><path style="opacity:0.924" fill="#73787f" d="M 58.5,60.5 C 58.5,91.8333 58.5,123.167 58.5,154.5C 57.5111,149.025 57.1778,143.358 57.5,137.5C 56.519,112.59 56.1857,87.7562 56.5,63C 57.0659,62.0053 57.7326,61.172 58.5,60.5 Z"/></g>
<g><path style="opacity:0.114" fill="#4b4d52" d="M 82.5,65.5 C 84.6648,65.1159 86.3315,65.7826 87.5,67.5C 86.3315,69.2174 84.6648,69.8841 82.5,69.5C 82.5,68.1667 82.5,66.8333 82.5,65.5 Z"/></g>
<g><path style="opacity:1" fill="#6b7989" d="M 196.5,65.5 C 197.833,65.5 199.167,65.5 200.5,65.5C 200.5,66.8333 200.5,68.1667 200.5,69.5C 196.56,70.234 195.227,68.9007 196.5,65.5 Z"/></g>
<g><path style="opacity:0.11" fill="#4e5056" d="M 214.5,65.5 C 216.167,65.5 217.833,65.5 219.5,65.5C 219.5,66.8333 219.5,68.1667 219.5,69.5C 217.833,69.5 216.167,69.5 214.5,69.5C 214.5,68.1667 214.5,66.8333 214.5,65.5 Z"/></g>
<g><path style="opacity:1" fill="#121d25" d="M 340.5,65.5 C 341.833,65.5 343.167,65.5 344.5,65.5C 344.5,66.8333 344.5,68.1667 344.5,69.5C 343.167,69.5 341.833,69.5 340.5,69.5C 340.5,68.1667 340.5,66.8333 340.5,65.5 Z"/></g>
<g><path style="opacity:0.035" fill="#232f39" d="M 206.5,65.5 C 206.5,66.5 206.5,67.5 206.5,68.5C 207.5,68.5 208.5,68.5 209.5,68.5C 209.5,66.5 208.5,65.5 206.5,65.5 Z"/></g>
<g><path style="opacity:1" fill="#595b62" d="M 349.5,65.5 C 353.138,64.7366 354.638,66.0699 354,69.5C 350.331,71.0093 348.831,69.6759 349.5,65.5 Z"/></g>
<g><path style="opacity:0.013" fill="#000d16" d="M 308.5,73.5 C 309.251,72.4265 310.251,72.2599 311.5,73C 310.552,73.4828 309.552,73.6495 308.5,73.5 Z"/></g>
<g><path style="opacity:0.739" fill="#121e27" d="M 203.5,75.5 C 208.167,75.5 212.833,75.5 217.5,75.5C 217.5,76.5 217.5,77.5 217.5,78.5C 212.833,78.5 208.167,78.5 203.5,78.5C 203.5,77.5 203.5,76.5 203.5,75.5 Z"/></g>
<g><path style="opacity:1" fill="#353f49" d="M 195.5,75.5 C 196.833,75.5 198.167,75.5 199.5,75.5C 199.5,76.5 199.5,77.5 199.5,78.5C 198.167,78.5 196.833,78.5 195.5,78.5C 195.5,77.5 195.5,76.5 195.5,75.5 Z"/></g>
<g><path style="opacity:0.699" fill="#253038" d="M 297.5,67.5 C 298.166,70.6893 298.833,74.0227 299.5,77.5C 306.414,77.0955 313.08,76.7621 319.5,76.5C 312.576,78.4633 305.243,79.1299 297.5,78.5C 297.5,74.8333 297.5,71.1667 297.5,67.5 Z"/></g>
<g><path style="opacity:1" fill="#27333d" d="M 131.5,79.5 C 140.167,79.5 148.833,79.5 157.5,79.5C 157.5,81.5 157.5,83.5 157.5,85.5C 148.833,85.5 140.167,85.5 131.5,85.5C 131.5,83.5 131.5,81.5 131.5,79.5 Z"/></g>
<g><path style="opacity:1" fill="#0c161e" d="M 117.5,124.5 C 115.095,124.134 112.762,123.467 110.5,122.5C 108.962,122.453 107.962,123.12 107.5,124.5C 106.325,124.281 105.325,124.614 104.5,125.5C 103.652,127.409 103.318,129.409 103.5,131.5C 101.167,131.5 98.8333,131.5 96.5,131.5C 96.6783,127.172 94.6783,124.338 90.5,123C 89.5,122.333 88.5,122.333 87.5,123C 86.2285,125.261 84.5618,125.761 82.5,124.5C 81.5089,123.335 80.5089,122.168 79.5,121C 80.723,119.28 81.723,117.447 82.5,115.5C 82.408,110.14 79.7414,108.14 74.5,109.5C 74.5,106.833 74.5,104.167 74.5,101.5C 76.5,101.167 78.5,100.833 80.5,100.5C 80.5789,98.3337 81.2455,96.3337 82.5,94.5C 81.935,92.5952 80.935,90.9285 79.5,89.5C 80.6477,87.8513 81.981,86.3513 83.5,85C 85.8238,86.5818 88.4905,87.2485 91.5,87C 94.4742,85.9035 96.1408,83.7368 96.5,80.5C 98.7427,79.5258 101.076,79.1924 103.5,79.5C 103.776,85.3012 106.776,87.8012 112.5,87C 113.466,85.3221 114.799,84.6554 116.5,85C 118.019,86.3513 119.352,87.8513 120.5,89.5C 119.065,90.9285 118.065,92.5952 117.5,94.5C 118.531,96.3822 119.365,98.3822 120,100.5C 121.699,101.406 123.533,101.739 125.5,101.5C 125.808,103.924 125.474,106.257 124.5,108.5C 122.929,109.309 121.262,109.643 119.5,109.5C 119.318,111.675 118.651,113.675 117.5,115.5C 118.065,117.405 119.065,119.071 120.5,120.5C 119.476,121.852 118.476,123.185 117.5,124.5 Z"/></g>
<g><path style="opacity:1" fill="#000d16" d="M 132.5,80.5 C 140.5,80.5 148.5,80.5 156.5,80.5C 156.5,81.8333 156.5,83.1667 156.5,84.5C 148.5,84.5 140.5,84.5 132.5,84.5C 132.5,83.1667 132.5,81.8333 132.5,80.5 Z"/></g>
<g><path style="opacity:1" fill="#19262f" d="M 297.5,79.5 C 305.019,79.175 312.352,79.5084 319.5,80.5C 312.5,80.5 305.5,80.5 298.5,80.5C 298.5,88.5 298.5,96.5 298.5,104.5C 305.5,104.5 312.5,104.5 319.5,104.5C 312.352,105.492 305.019,105.825 297.5,105.5C 297.5,96.8333 297.5,88.1667 297.5,79.5 Z"/></g>
<g><path style="opacity:0.99" fill="#000d16" d="M 319.5,80.5 C 319.5,88.5 319.5,96.5 319.5,104.5C 312.5,104.5 305.5,104.5 298.5,104.5C 298.5,96.5 298.5,88.5 298.5,80.5C 305.5,80.5 312.5,80.5 319.5,80.5 Z"/></g>
<g><path style="opacity:1" fill="#6d7c8b" d="M 331.5,84.5 C 331.5,84.1667 331.5,83.8333 331.5,83.5C 362.167,83.5 392.833,83.5 423.5,83.5C 423.5,99.1667 423.5,114.833 423.5,130.5C 423.167,130.5 422.833,130.5 422.5,130.5C 422.5,115.167 422.5,99.8333 422.5,84.5C 392.167,84.5 361.833,84.5 331.5,84.5 Z"/></g>
<g><path style="opacity:1" fill="#333e47" d="M 196.5,83.5 C 199.861,84.2032 200.194,85.5365 197.5,87.5C 195.358,86.5629 195.024,85.2296 196.5,83.5 Z"/></g>
<g><path style="opacity:1" fill="#5b6b7c" d="M 331.5,84.5 C 361.833,84.5 392.167,84.5 422.5,84.5C 422.5,99.8333 422.5,115.167 422.5,130.5C 392.167,130.5 361.833,130.5 331.5,130.5C 331.5,115.167 331.5,99.8333 331.5,84.5 Z"/></g>
<g><path style="opacity:1" fill="#6e7c8c" d="M 203.5,83.5 C 212.506,83.3336 221.506,83.5002 230.5,84C 231.833,85 231.833,86 230.5,87C 221.506,87.4998 212.506,87.6664 203.5,87.5C 203.5,86.1667 203.5,84.8333 203.5,83.5 Z"/></g>
<g><path style="opacity:1" fill="#2f3a44" d="M 196.5,91.5 C 199.861,92.2032 200.194,93.5365 197.5,95.5C 195.358,94.5629 195.024,93.2296 196.5,91.5 Z"/></g>
<g><path style="opacity:1" fill="#6b7a8a" d="M 204.5,91.5 C 207.5,91.5 210.5,91.5 213.5,91.5C 213.5,92.8333 213.5,94.1667 213.5,95.5C 210.167,95.5 206.833,95.5 203.5,95.5C 203.433,94.0413 203.766,92.7079 204.5,91.5 Z"/></g>
<g><path style="opacity:1" fill="#1c262e" d="M 220.5,91.5 C 232.838,91.3335 245.171,91.5001 257.5,92C 258.833,93 258.833,94 257.5,95C 244.838,95.4999 232.171,95.6666 219.5,95.5C 219.433,94.0413 219.766,92.7079 220.5,91.5 Z"/></g>
<g><path style="opacity:1" fill="#031019" d="M 369.5,97.5 C 374.638,99.5685 379.305,102.402 383.5,106C 379.508,109.331 375.175,112.164 370.5,114.5C 369.505,108.872 369.171,103.206 369.5,97.5 Z"/></g>
<g><path style="opacity:1" fill="#617081" d="M 203.5,100.5 C 216.517,100.168 229.517,100.501 242.5,101.5C 242.291,102.086 241.957,102.586 241.5,103C 228.838,103.5 216.171,103.667 203.5,103.5C 203.5,102.5 203.5,101.5 203.5,100.5 Z"/></g>
<g><path style="opacity:1" fill="#303b44" d="M 195.5,100.5 C 196.833,100.5 198.167,100.5 199.5,100.5C 199.5,101.5 199.5,102.5 199.5,103.5C 197.027,103.912 195.694,102.912 195.5,100.5 Z"/></g>
<g><path style="opacity:1" fill="#313c46" d="M 247.5,100.5 C 248.514,101.765 250.014,102.431 252,102.5C 253.986,102.431 255.486,101.765 256.5,100.5C 257.404,101.209 257.737,102.209 257.5,103.5C 253.833,103.5 250.167,103.5 246.5,103.5C 246.263,102.209 246.596,101.209 247.5,100.5 Z"/></g>
<g><path style="opacity:1" fill="#010e17" d="M 247.5,100.5 C 250.5,100.5 253.5,100.5 256.5,100.5C 255.486,101.765 253.986,102.431 252,102.5C 250.014,102.431 248.514,101.765 247.5,100.5 Z"/></g>
<g><path style="opacity:1" fill="#5d6670" d="M 323.5,58.5 C 323.5,58.8333 323.5,59.1667 323.5,59.5C 322.542,59.9528 321.708,60.6195 321,61.5C 320.5,92.1649 320.333,122.832 320.5,153.5C 319.51,147.355 319.177,141.022 319.5,134.5C 312.167,134.5 304.833,134.5 297.5,134.5C 297.5,133.833 297.5,133.167 297.5,132.5C 305.019,132.825 312.352,132.492 319.5,131.5C 319.5,123.5 319.5,115.5 319.5,107.5C 312.352,106.508 305.019,106.175 297.5,106.5C 297.5,106.167 297.5,105.833 297.5,105.5C 305.019,105.825 312.352,105.492 319.5,104.5C 319.5,96.5 319.5,88.5 319.5,80.5C 312.352,79.5084 305.019,79.175 297.5,79.5C 297.5,79.1667 297.5,78.8333 297.5,78.5C 305.243,79.1299 312.576,78.4633 319.5,76.5C 319.334,71.1563 319.501,65.8229 320,60.5C 320.816,59.1772 321.983,58.5106 323.5,58.5 Z"/></g>
<g><path style="opacity:1" fill="#131c24" d="M 131.5,105.5 C 140.167,105.5 148.833,105.5 157.5,105.5C 157.5,107.5 157.5,109.5 157.5,111.5C 148.833,111.5 140.167,111.5 131.5,111.5C 131.5,109.5 131.5,107.5 131.5,105.5 Z"/></g>
<g><path style="opacity:1" fill="#57616b" d="M 168.5,61.5 C 169.483,65.2984 169.817,69.2984 169.5,73.5C 169.5,74.8333 169.5,76.1667 169.5,77.5C 174.833,77.5 180.167,77.5 185.5,77.5C 185.5,75.5 185.5,73.5 185.5,71.5C 185.187,67.9581 185.521,64.6248 186.5,61.5C 186.5,88.8333 186.5,116.167 186.5,143.5C 185.523,140.713 185.19,137.713 185.5,134.5C 180.167,134.5 174.833,134.5 169.5,134.5C 169.823,141.022 169.49,147.355 168.5,153.5C 168.5,122.833 168.5,92.1667 168.5,61.5 Z M 185.5,85.5 C 185.5,88.5 185.5,91.5 185.5,94.5C 183.571,96.2578 181.571,96.9245 179.5,96.5C 180.151,92.1953 181.651,88.1953 184,84.5C 184.383,85.056 184.883,85.3893 185.5,85.5 Z"/></g>
<g><path style="opacity:0.403" fill="#000d16" d="M 185.5,80.5 C 185.5,82.1667 185.5,83.8333 185.5,85.5C 184.883,85.3893 184.383,85.056 184,84.5C 181.651,88.1953 180.151,92.1953 179.5,96.5C 181.571,96.9245 183.571,96.2578 185.5,94.5C 185.5,97.8333 185.5,101.167 185.5,104.5C 180.5,104.5 175.5,104.5 170.5,104.5C 170.5,98.8333 170.5,93.1667 170.5,87.5C 171.833,86.5 171.833,85.5 170.5,84.5C 170.5,83.1667 170.5,81.8333 170.5,80.5C 175.5,80.5 180.5,80.5 185.5,80.5 Z"/></g>
<g><path style="opacity:0.261" fill="#15212a" d="M 185.5,80.5 C 180.5,80.5 175.5,80.5 170.5,80.5C 170.5,81.8333 170.5,83.1667 170.5,84.5C 170.5,85.5 170.5,86.5 170.5,87.5C 170.5,93.1667 170.5,98.8333 170.5,104.5C 175.5,104.5 180.5,104.5 185.5,104.5C 180.36,105.488 175.026,105.821 169.5,105.5C 169.5,96.8333 169.5,88.1667 169.5,79.5C 175.026,79.1786 180.36,79.5119 185.5,80.5 Z"/></g>
<g><path style="opacity:0.103" fill="#031019" d="M 185.5,71.5 C 185.5,73.5 185.5,75.5 185.5,77.5C 180.167,77.5 174.833,77.5 169.5,77.5C 169.5,76.1667 169.5,74.8333 169.5,73.5C 174.035,76.2273 179.035,77.2273 184.5,76.5C 184.216,74.5853 184.549,72.9187 185.5,71.5 Z"/></g>
<g><path style="opacity:1" fill="#16222c" d="M 185.5,107.5 C 180.5,107.5 175.5,107.5 170.5,107.5C 170.5,115.5 170.5,123.5 170.5,131.5C 175.5,131.5 180.5,131.5 185.5,131.5C 180.36,132.488 175.026,132.821 169.5,132.5C 169.5,123.833 169.5,115.167 169.5,106.5C 175.026,106.179 180.36,106.512 185.5,107.5 Z"/></g>
<g><path style="opacity:0.983" fill="#000d16" d="M 185.5,107.5 C 185.5,115.5 185.5,123.5 185.5,131.5C 180.5,131.5 175.5,131.5 170.5,131.5C 170.5,123.5 170.5,115.5 170.5,107.5C 175.5,107.5 180.5,107.5 185.5,107.5 Z"/></g>
<g><path style="opacity:1" fill="#1a2730" d="M 297.5,106.5 C 305.019,106.175 312.352,106.508 319.5,107.5C 312.5,107.5 305.5,107.5 298.5,107.5C 298.5,115.5 298.5,123.5 298.5,131.5C 305.5,131.5 312.5,131.5 319.5,131.5C 312.352,132.492 305.019,132.825 297.5,132.5C 297.5,123.833 297.5,115.167 297.5,106.5 Z"/></g>
<g><path style="opacity:1" fill="#000d16" d="M 319.5,107.5 C 319.5,115.5 319.5,123.5 319.5,131.5C 312.5,131.5 305.5,131.5 298.5,131.5C 298.5,123.5 298.5,115.5 298.5,107.5C 305.5,107.5 312.5,107.5 319.5,107.5 Z"/></g>
<g><path style="opacity:1" fill="#0a151e" d="M 203.5,108.5 C 213.5,108.5 223.5,108.5 233.5,108.5C 233.5,109.5 233.5,110.5 233.5,111.5C 223.5,111.5 213.5,111.5 203.5,111.5C 203.5,110.5 203.5,109.5 203.5,108.5 Z"/></g>
<g><path style="opacity:1" fill="#28333c" d="M 196.5,108.5 C 197.995,108.415 198.995,109.081 199.5,110.5C 198.167,111.833 196.833,111.833 195.5,110.5C 195.863,109.817 196.196,109.15 196.5,108.5 Z"/></g>
<g><path style="opacity:1" fill="#2f3942" d="M 196.5,116.5 C 199.861,117.203 200.194,118.537 197.5,120.5C 195.358,119.563 195.024,118.23 196.5,116.5 Z"/></g>
<g><path style="opacity:1" fill="#6a7989" d="M 203.5,116.5 C 211.167,116.5 218.833,116.5 226.5,116.5C 226.5,117.833 226.5,119.167 226.5,120.5C 218.833,120.5 211.167,120.5 203.5,120.5C 203.5,119.167 203.5,117.833 203.5,116.5 Z"/></g>
<g><path style="opacity:1" fill="#6c7a8a" d="M 231.5,116.5 C 234.833,116.5 238.167,116.5 241.5,116.5C 241.5,117.833 241.5,119.167 241.5,120.5C 238.167,120.5 234.833,120.5 231.5,120.5C 231.5,119.167 231.5,117.833 231.5,116.5 Z"/></g>
<g><path style="opacity:1" fill="#6c7b8b" d="M 246.5,116.5 C 249.518,116.335 252.518,116.502 255.5,117C 256.833,118 256.833,119 255.5,120C 252.5,120.667 249.5,120.667 246.5,120C 245.316,118.855 245.316,117.688 246.5,116.5 Z"/></g>
<g><path style="opacity:1" fill="#2f3e4b" d="M 113.5,110.5 C 112.793,115.71 109.793,118.877 104.5,120C 88.6696,121.169 82.5029,114.002 86,98.5C 90.5364,91.1562 97.0364,88.6562 105.5,91C 113.87,95.2318 116.537,101.732 113.5,110.5 Z"/></g>
<g><path style="opacity:1" fill="#0a151d" d="M 113.5,110.5 C 104.662,122.435 95.8291,122.435 87,110.5C 85.741,94.0962 92.9076,88.5962 108.5,94C 112.986,98.5677 114.653,104.068 113.5,110.5 Z"/></g>
<g><path style="opacity:1" fill="#78818b" d="M 93.5,111.5 C 96.2153,113.123 99.2153,113.79 102.5,113.5C 100.372,114.629 98.0385,114.796 95.5,114C 94.6195,113.292 93.9528,112.458 93.5,111.5 Z"/></g>
<g><path style="opacity:1" fill="#bac2cc" d="M 102.5,113.5 C 99.2153,113.79 96.2153,113.123 93.5,111.5C 89.0013,105.988 89.668,101.155 95.5,97C 102.699,95.0957 107.366,97.5957 109.5,104.5C 109.01,108.984 106.677,111.984 102.5,113.5 Z"/></g>
<g><path style="opacity:1" fill="#081219" d="M 431.5,116.5 C 435.975,121.437 439.975,126.77 443.5,132.5C 439.5,132.5 435.5,132.5 431.5,132.5C 431.5,127.167 431.5,121.833 431.5,116.5 Z"/></g>
<g><path style="opacity:1" fill="#78818c" d="M 117.5,124.5 C 114.368,125.012 111.035,125.012 107.5,124.5C 107.962,123.12 108.962,122.453 110.5,122.5C 112.762,123.467 115.095,124.134 117.5,124.5 Z"/></g>
<g><path style="opacity:1" fill="#242f38" d="M 195.5,125.5 C 196.978,125.238 198.311,125.571 199.5,126.5C 197.537,129.194 196.203,128.861 195.5,125.5 Z"/></g>
<g><path style="opacity:1" fill="#020f18" d="M 237.5,125.5 C 226.549,127.478 215.216,128.144 203.5,127.5C 214.451,125.522 225.784,124.856 237.5,125.5 Z"/></g>
<g><path style="opacity:1" fill="#202c35" d="M 237.5,125.5 C 238.404,126.209 238.737,127.209 238.5,128.5C 226.655,128.828 214.988,128.495 203.5,127.5C 215.216,128.144 226.549,127.478 237.5,125.5 Z"/></g>
<g><path style="opacity:1" fill="#83909e" d="M 331.5,83.5 C 331.5,83.8333 331.5,84.1667 331.5,84.5C 331.5,99.8333 331.5,115.167 331.5,130.5C 361.833,130.5 392.167,130.5 422.5,130.5C 422.833,130.5 423.167,130.5 423.5,130.5C 392.671,131.498 361.671,131.831 330.5,131.5C 330.17,115.325 330.504,99.3246 331.5,83.5 Z"/></g>
<g><path style="opacity:1" fill="#46515b" d="M 431.5,132.5 C 435.5,132.5 439.5,132.5 443.5,132.5C 439.971,134.423 435.971,135.089 431.5,134.5C 431.5,133.833 431.5,133.167 431.5,132.5 Z"/></g>
<g><path style="opacity:1" fill="#0b151d" d="M 443.5,132.5 C 448.648,140.928 452.648,149.928 455.5,159.5C 317.833,159.5 180.167,159.5 42.5,159.5C 46.5139,151.465 51.5139,144.132 57.5,137.5C 57.1778,143.358 57.5111,149.025 58.5,154.5C 58.6107,155.117 58.944,155.617 59.5,156C 95.1667,156.667 130.833,156.667 166.5,156C 167.381,155.292 168.047,154.458 168.5,153.5C 169.49,147.355 169.823,141.022 169.5,134.5C 174.833,134.5 180.167,134.5 185.5,134.5C 185.19,137.713 185.523,140.713 186.5,143.5C 186.804,144.15 187.137,144.817 187.5,145.5C 223.495,146.667 259.495,146.833 295.5,146C 296,145.5 296.5,145 297,144.5C 297.498,141.183 297.665,137.85 297.5,134.5C 304.833,134.5 312.167,134.5 319.5,134.5C 319.177,141.022 319.51,147.355 320.5,153.5C 320.953,154.458 321.619,155.292 322.5,156C 358.167,156.667 393.833,156.667 429.5,156C 430.056,155.617 430.389,155.117 430.5,154.5C 431.491,148.021 431.824,141.354 431.5,134.5C 435.971,135.089 439.971,134.423 443.5,132.5 Z"/></g>
<g><path style="opacity:1" fill="#2e3943" d="M 195.5,133.5 C 196.833,133.5 198.167,133.5 199.5,133.5C 199.5,134.5 199.5,135.5 199.5,136.5C 198.167,136.5 196.833,136.5 195.5,136.5C 195.5,135.5 195.5,134.5 195.5,133.5 Z"/></g>
<g><path style="opacity:1" fill="#0e1a22" d="M 203.5,133.5 C 209.5,133.5 215.5,133.5 221.5,133.5C 221.5,134.5 221.5,135.5 221.5,136.5C 215.5,136.5 209.5,136.5 203.5,136.5C 203.5,135.5 203.5,134.5 203.5,133.5 Z"/></g>
<g><path style="opacity:1" fill="#637383" d="M 224.5,133.5 C 232.5,133.5 240.5,133.5 248.5,133.5C 248.5,134.5 248.5,135.5 248.5,136.5C 240.5,136.5 232.5,136.5 224.5,136.5C 224.5,135.5 224.5,134.5 224.5,133.5 Z"/></g>
<g><path style="opacity:1" fill="#9099a4" d="M 89.5,137.5 C 94.5,137.5 99.5,137.5 104.5,137.5C 104.5,139.5 104.5,141.5 104.5,143.5C 102.5,143.5 100.5,143.5 98.5,143.5C 97.8333,139.5 97.1667,139.5 96.5,143.5C 94.1667,143.5 91.8333,143.5 89.5,143.5C 89.5,141.5 89.5,139.5 89.5,137.5 Z"/></g>
<g><path style="opacity:1" fill="#9fa4ad" d="M 109.5,137.5 C 114.833,137.5 120.167,137.5 125.5,137.5C 125.5,139.5 125.5,141.5 125.5,143.5C 123.167,143.5 120.833,143.5 118.5,143.5C 117.833,139.5 117.167,139.5 116.5,143.5C 114.167,143.5 111.833,143.5 109.5,143.5C 109.5,141.5 109.5,139.5 109.5,137.5 Z"/></g>
<g><path style="opacity:1" fill="#9ea3ad" d="M 330.5,139.5 C 333.244,139.248 335.744,139.915 338,141.5C 340.326,139.551 342.826,139.218 345.5,140.5C 343.955,141.452 342.288,141.785 340.5,141.5C 340.5,142.5 340.5,143.5 340.5,144.5C 337.167,144.5 333.833,144.5 330.5,144.5C 330.5,142.833 330.5,141.167 330.5,139.5 Z"/></g>
<g><path style="opacity:1" fill="#878f9a" d="M 359.5,136.5 C 364.511,136.334 369.511,136.501 374.5,137C 369.833,137.333 365.167,137.667 360.5,138C 363.557,137.893 365.891,139.06 367.5,141.5C 369.599,139.466 371.932,139.132 374.5,140.5C 372.955,141.452 371.288,141.785 369.5,141.5C 369.5,142.5 369.5,143.5 369.5,144.5C 366.167,144.5 362.833,144.5 359.5,144.5C 359.5,141.833 359.5,139.167 359.5,136.5 Z"/></g>
<g><path style="opacity:1" fill="#545f69" d="M 42.5,159.5 C 180.167,159.5 317.833,159.5 455.5,159.5C 455.5,160.167 455.5,160.833 455.5,161.5C 317.5,161.5 179.5,161.5 41.5,161.5C 41.3284,160.508 41.6618,159.842 42.5,159.5 Z"/></g>
<g><path style="opacity:0.979" fill="#010e16" d="M 41.5,161.5 C 179.5,161.5 317.5,161.5 455.5,161.5C 456.461,163.265 456.795,165.265 456.5,167.5C 459.059,167.198 461.393,167.532 463.5,168.5C 391.166,168.333 318.833,168.5 246.5,169C 244.308,169.926 242.308,171.093 240.5,172.5C 240.5,171.5 240.5,170.5 240.5,169.5C 235.156,169.334 229.823,169.501 224.5,170C 223.798,175.048 224.798,179.881 227.5,184.5C 230.372,185.783 233.205,185.783 236,184.5C 236.346,181.424 237.012,178.424 238,175.5C 238.383,174.944 238.883,174.611 239.5,174.5C 237.998,178.342 237.332,182.342 237.5,186.5C 233.774,186.823 230.107,186.489 226.5,185.5C 222.796,174.287 215.129,168.12 203.5,167C 200.312,163.936 196.479,162.436 192,162.5C 185.224,164.454 178.391,166.288 171.5,168C 164.964,172.402 160.631,178.402 158.5,186C 151.508,186.5 144.508,186.666 137.5,186.5C 137.815,182.629 137.482,178.962 136.5,175.5C 136.047,174.542 135.381,173.708 134.5,173C 109.833,172.333 85.1667,172.333 60.5,173C 59.3333,173.5 58.5,174.333 58,175.5C 57.5014,179.152 57.3347,182.818 57.5,186.5C 48.5,186.5 39.5,186.5 30.5,186.5C 33.6006,177.846 37.2673,169.512 41.5,161.5 Z"/></g>
<g><path style="opacity:1" fill="#393b41" d="M 239.5,174.5 C 239.328,173.508 239.662,172.842 240.5,172.5C 242.308,171.093 244.308,169.926 246.5,169C 318.833,168.5 391.166,168.333 463.5,168.5C 464.791,168.263 465.791,168.596 466.5,169.5C 464.801,169.34 463.134,169.506 461.5,170C 463.333,171.833 465.167,173.667 467,175.5C 467.167,177.667 467.333,179.833 467.5,182C 462.563,226.192 457.73,270.359 453,314.5C 451.401,319.594 448.234,323.261 443.5,325.5C 434.833,325.5 426.167,325.5 417.5,325.5C 406.654,325.172 395.987,325.506 385.5,326.5C 383.958,325.699 382.292,325.366 380.5,325.5C 381.203,331.645 382.536,337.645 384.5,343.5C 384.5,344.5 384.5,345.5 384.5,346.5C 371.167,346.5 357.833,346.5 344.5,346.5C 343.167,339.5 341.833,332.5 340.5,325.5C 306.329,325.168 272.329,325.502 238.5,326.5C 237.599,325.71 236.932,324.71 236.5,323.5C 270.655,321.835 304.988,320.835 339.5,320.5C 340.908,319.939 342.408,319.605 344,319.5C 347.61,321.042 351.444,321.708 355.5,321.5C 360.167,321.5 364.833,321.5 369.5,321.5C 383.823,320.314 398.156,320.314 412.5,321.5C 422.506,321.666 432.506,321.5 442.5,321C 444.939,320.226 446.773,318.726 448,316.5C 453.167,271.496 458.334,226.496 463.5,181.5C 463.833,176.995 461.833,174.161 457.5,173C 386.752,172.007 316.085,172.34 245.5,174C 243.032,176.228 241.865,179.062 242,182.5C 237.367,221.794 233.034,261.127 229,300.5C 228.586,300.957 228.086,301.291 227.5,301.5C 226.3,299.229 225.3,296.896 224.5,294.5C 226.04,286.705 227.04,278.705 227.5,270.5C 228.338,270.158 228.672,269.492 228.5,268.5C 229.229,263.87 229.563,259.203 229.5,254.5C 229.5,253.167 229.5,251.833 229.5,250.5C 230.468,248.393 230.802,246.059 230.5,243.5C 220.833,243.5 211.167,243.5 201.5,243.5C 201.5,242.833 201.167,242.5 200.5,242.5C 199.621,235.862 198.454,235.862 197,242.5C 196.338,240.187 195.838,237.854 195.5,235.5C 195.607,233.621 195.107,233.288 194,234.5C 193.023,236.74 192.523,239.073 192.5,241.5C 184.316,241.174 176.316,241.508 168.5,242.5C 168.672,243.492 168.338,244.158 167.5,244.5C 120.336,243.501 73.0029,243.168 25.5,243.5C 25.5,242.5 25.5,241.5 25.5,240.5C 62.8333,240.5 100.167,240.5 137.5,240.5C 137.35,231.466 140.517,223.799 147,217.5C 147.692,216.563 147.525,215.897 146.5,215.5C 143.5,214.833 140.5,214.167 137.5,213.5C 140.5,213.5 143.5,213.5 146.5,213.5C 145.074,208.437 145.241,203.437 147,198.5C 149.746,194.592 152.912,191.259 156.5,188.5C 150.74,187.797 144.407,187.131 137.5,186.5C 144.508,186.666 151.508,186.5 158.5,186C 160.631,178.402 164.964,172.402 171.5,168C 178.391,166.288 185.224,164.454 192,162.5C 196.479,162.436 200.312,163.936 203.5,167C 215.129,168.12 222.796,174.287 226.5,185.5C 230.107,186.489 233.774,186.823 237.5,186.5C 237.332,182.342 237.998,178.342 239.5,174.5 Z M 240.5,172.5 C 239.662,172.842 239.328,173.508 239.5,174.5C 238.883,174.611 238.383,174.944 238,175.5C 237.012,178.424 236.346,181.424 236,184.5C 233.205,185.783 230.372,185.783 227.5,184.5C 224.798,179.881 223.798,175.048 224.5,170C 229.823,169.501 235.156,169.334 240.5,169.5C 240.5,170.5 240.5,171.5 240.5,172.5 Z M 235.5,195.5 C 234.691,197.292 234.191,199.292 234,201.5C 231.379,200.253 229.879,198.253 229.5,195.5C 229.5,193.5 229.5,191.5 229.5,189.5C 234.5,188.5 236.5,190.5 235.5,195.5 Z"/></g>
<g><path style="opacity:1" fill="#b3b9c3" d="M 466.5,169.5 C 469.056,170.543 471.223,172.21 473,174.5C 473.847,187.203 473.013,199.87 470.5,212.5C 468.85,218.25 468.184,224.25 468.5,230.5C 468.5,231.167 468.5,231.833 468.5,232.5C 467.778,232.918 467.278,233.584 467,234.5C 466.058,241.806 465.558,249.14 465.5,256.5C 464.853,265.676 463.853,274.676 462.5,283.5C 460.823,289.584 460.156,295.918 460.5,302.5C 460.5,302.833 460.5,303.167 460.5,303.5C 459.778,303.918 459.278,304.584 459,305.5C 458.462,310.171 457.962,314.838 457.5,319.5C 454.394,324.711 449.728,326.711 443.5,325.5C 448.234,323.261 451.401,319.594 453,314.5C 457.73,270.359 462.563,226.192 467.5,182C 467.333,179.833 467.167,177.667 467,175.5C 465.167,173.667 463.333,171.833 461.5,170C 463.134,169.506 464.801,169.34 466.5,169.5 Z"/></g>
<g><path style="opacity:1" fill="#bdc4cf" d="M 136.5,175.5 C 136.5,189.167 136.5,202.833 136.5,216.5C 135.942,217.79 134.942,218.623 133.5,219C 109.167,219.667 84.8333,219.667 60.5,219C 59.6266,217.955 58.6266,217.122 57.5,216.5C 57.5,215.5 57.5,214.5 57.5,213.5C 57.5,205.167 57.5,196.833 57.5,188.5C 57.5,187.833 57.5,187.167 57.5,186.5C 57.3347,182.818 57.5014,179.152 58,175.5C 58.5,174.333 59.3333,173.5 60.5,173C 85.1667,172.333 109.833,172.333 134.5,173C 135.381,173.708 136.047,174.542 136.5,175.5 Z"/></g>
<g><path style="opacity:1" fill="#5c6c7c" d="M 412.5,321.5 C 415.109,306.633 416.609,291.633 417,276.5C 416.617,275.944 416.117,275.611 415.5,275.5C 391.003,274.337 366.337,274.17 341.5,275C 340.944,275.383 340.611,275.883 340.5,276.5C 336.681,290.858 334.681,305.525 334.5,320.5C 336.167,320.5 337.833,320.5 339.5,320.5C 304.988,320.835 270.655,321.835 236.5,323.5C 228.353,307.936 220.853,291.936 214,275.5C 205.963,266.634 197.63,266.301 189,274.5C 186.735,280.942 185.901,287.609 186.5,294.5C 184.611,288.678 180.611,284.845 174.5,283C 162.838,282.5 151.171,282.333 139.5,282.5C 139.237,277.625 140.57,273.292 143.5,269.5C 143.5,269.167 143.5,268.833 143.5,268.5C 148.077,264.547 153.411,262.214 159.5,261.5C 160.381,258.07 161.548,254.737 163,251.5C 164.011,250.663 165.178,250.33 166.5,250.5C 166.263,249.209 166.596,248.209 167.5,247.5C 167.369,248.376 167.702,249.043 168.5,249.5C 173.677,247.568 179.011,247.068 184.5,248C 189.586,250.418 194.919,251.918 200.5,252.5C 200.5,249.167 200.5,245.833 200.5,242.5C 201.167,242.5 201.5,242.833 201.5,243.5C 201.5,246.833 201.5,250.167 201.5,253.5C 203.346,253.222 204.68,253.889 205.5,255.5C 204.423,257.729 203.756,260.063 203.5,262.5C 205.921,262.878 208.254,263.545 210.5,264.5C 210.511,266.017 211.177,267.184 212.5,268C 217.823,268.499 223.156,268.666 228.5,268.5C 228.672,269.492 228.338,270.158 227.5,270.5C 223.154,270.334 218.821,270.501 214.5,271C 218.907,278.39 222.24,286.224 224.5,294.5C 225.3,296.896 226.3,299.229 227.5,301.5C 228.086,301.291 228.586,300.957 229,300.5C 233.034,261.127 237.367,221.794 242,182.5C 241.865,179.062 243.032,176.228 245.5,174C 316.085,172.34 386.752,172.007 457.5,173C 461.833,174.161 463.833,176.995 463.5,181.5C 458.334,226.496 453.167,271.496 448,316.5C 446.773,318.726 444.939,320.226 442.5,321C 432.506,321.5 422.506,321.666 412.5,321.5 Z M 229.5,250.5 C 229.5,251.833 229.5,253.167 229.5,254.5C 228.437,258.639 227.77,262.972 227.5,267.5C 222.821,267.666 218.155,267.499 213.5,267C 212.627,265.955 211.627,265.122 210.5,264.5C 208.384,259.541 208.218,254.541 210,249.5C 216.249,246.918 222.749,245.251 229.5,244.5C 229.5,246.5 229.5,248.5 229.5,250.5 Z M 220.5,271.5 C 222.5,271.5 224.5,271.5 226.5,271.5C 225.949,274.807 225.616,278.14 225.5,281.5C 220.144,280.121 218.477,276.788 220.5,271.5 Z"/></g>
<g><path style="opacity:1" fill="#a0aab7" d="M 384.5,176.5 C 391.167,176.5 397.833,176.5 404.5,176.5C 404.5,177.5 404.5,178.5 404.5,179.5C 397.468,179.83 390.468,179.497 383.5,178.5C 383.863,177.817 384.196,177.15 384.5,176.5 Z"/></g>
<g><path style="opacity:1" fill="#464c56" d="M 251.5,176.5 C 292.833,176.5 334.167,176.5 375.5,176.5C 375.5,177.5 375.5,178.5 375.5,179.5C 334.167,179.5 292.833,179.5 251.5,179.5C 251.5,178.5 251.5,177.5 251.5,176.5 Z"/></g>
<g><path style="opacity:1" fill="#23313d" d="M 408.5,176.5 C 424.503,176.333 440.503,176.5 456.5,177C 456.957,177.414 457.291,177.914 457.5,178.5C 441.18,179.499 424.847,179.833 408.5,179.5C 408.5,178.5 408.5,177.5 408.5,176.5 Z"/></g>
<g><path style="opacity:1" fill="#222e38" d="M 114.5,184.5 C 114.5,184.833 114.5,185.167 114.5,185.5C 111.833,185.5 109.167,185.5 106.5,185.5C 106.5,193.5 106.5,201.5 106.5,209.5C 106.167,209.5 105.833,209.5 105.5,209.5C 105.5,201.167 105.5,192.833 105.5,184.5C 108.5,184.5 111.5,184.5 114.5,184.5 Z"/></g>
<g><path style="opacity:1" fill="#000d16" d="M 114.5,185.5 C 114.5,193.5 114.5,201.5 114.5,209.5C 111.833,209.5 109.167,209.5 106.5,209.5C 106.5,201.5 106.5,193.5 106.5,185.5C 109.167,185.5 111.833,185.5 114.5,185.5 Z"/></g>
<g><path style="opacity:1" fill="#6b757f" d="M 114.5,184.5 C 115.493,192.984 115.826,201.651 115.5,210.5C 111.958,210.813 108.625,210.479 105.5,209.5C 105.833,209.5 106.167,209.5 106.5,209.5C 109.167,209.5 111.833,209.5 114.5,209.5C 114.5,201.5 114.5,193.5 114.5,185.5C 114.5,185.167 114.5,184.833 114.5,184.5 Z"/></g>
<g><path style="opacity:1" fill="#4a545e" d="M 30.5,186.5 C 39.5,186.5 48.5,186.5 57.5,186.5C 57.5,187.167 57.5,187.833 57.5,188.5C 48.5,188.5 39.5,188.5 30.5,188.5C 30.5,187.833 30.5,187.167 30.5,186.5 Z"/></g>
<g><path style="opacity:1" fill="#06121a" d="M 261.5,185.5 C 286.502,185.333 311.502,185.5 336.5,186C 337.464,190.066 337.797,194.233 337.5,198.5C 311.167,198.5 284.833,198.5 258.5,198.5C 258.547,193.852 259.547,189.518 261.5,185.5 Z"/></g>
<g><path style="opacity:1" fill="#c0c7d2" d="M 352.5,185.5 C 377.741,185.172 402.908,185.505 428,186.5C 426.289,212.234 423.622,237.901 420,263.5C 419.535,264.931 418.701,266.097 417.5,267C 392.261,267.827 367.094,267.661 342,266.5C 343,248.478 344.667,230.478 347,212.5C 348.328,205.254 349.328,197.921 350,190.5C 350.366,188.548 351.199,186.882 352.5,185.5 Z"/></g>
<g><path style="opacity:1" fill="#808d9c" d="M 120.5,187.5 C 120.5,194.833 120.5,202.167 120.5,209.5C 123.167,209.5 125.833,209.5 128.5,209.5C 128.5,202.167 128.5,194.833 128.5,187.5C 129.492,194.982 129.825,202.648 129.5,210.5C 126.167,210.5 122.833,210.5 119.5,210.5C 119.175,202.648 119.508,194.982 120.5,187.5 Z"/></g>
<g><path style="opacity:1" fill="#5c6c7d" d="M 120.5,187.5 C 123.167,187.5 125.833,187.5 128.5,187.5C 128.5,194.833 128.5,202.167 128.5,209.5C 125.833,209.5 123.167,209.5 120.5,209.5C 120.5,202.167 120.5,194.833 120.5,187.5 Z"/></g>
<g><path style="opacity:1" fill="#010d16" d="M 30.5,188.5 C 39.5,188.5 48.5,188.5 57.5,188.5C 57.5,196.833 57.5,205.167 57.5,213.5C 46.8333,213.5 36.1667,213.5 25.5,213.5C 26.5487,204.923 28.2154,196.589 30.5,188.5 Z"/></g>
<g><path style="opacity:1" fill="#767f8a" d="M 136.5,175.5 C 137.482,178.962 137.815,182.629 137.5,186.5C 144.407,187.131 150.74,187.797 156.5,188.5C 150.167,188.5 143.833,188.5 137.5,188.5C 137.5,196.833 137.5,205.167 137.5,213.5C 140.5,214.167 143.5,214.833 146.5,215.5C 143.061,215.253 139.728,215.586 136.5,216.5C 136.5,202.833 136.5,189.167 136.5,175.5 Z"/></g>
<g><path style="opacity:1" fill="#030f18" d="M 156.5,188.5 C 152.912,191.259 149.746,194.592 147,198.5C 145.241,203.437 145.074,208.437 146.5,213.5C 143.5,213.5 140.5,213.5 137.5,213.5C 137.5,205.167 137.5,196.833 137.5,188.5C 143.833,188.5 150.167,188.5 156.5,188.5 Z"/></g>
<g><path style="opacity:1" fill="#878f9a" d="M 269.5,190.5 C 271.048,190.821 271.715,191.821 271.5,193.5C 268.752,193.598 268.086,192.598 269.5,190.5 Z"/></g>
<g><path style="opacity:1" fill="#9098a3" d="M 274.5,190.5 C 276.465,190.948 276.798,191.948 275.5,193.5C 274.614,192.675 274.281,191.675 274.5,190.5 Z"/></g>
<g><path style="opacity:1" fill="#5f6f7f" d="M 91.5,190.5 C 94.5,190.5 97.5,190.5 100.5,190.5C 100.5,196.833 100.5,203.167 100.5,209.5C 97.5,209.5 94.5,209.5 91.5,209.5C 91.5,203.167 91.5,196.833 91.5,190.5 Z"/></g>
<g><path style="opacity:1" fill="#7f8791" d="M 263.5,190.5 C 264.5,190.5 265.5,190.5 266.5,190.5C 266.5,191.5 266.5,192.5 266.5,193.5C 265.5,193.5 264.5,193.5 263.5,193.5C 263.5,192.5 263.5,191.5 263.5,190.5 Z"/></g>
<g><path style="opacity:1" fill="#767f8a" d="M 290.5,191.5 C 295.875,191.172 301.208,191.505 306.5,192.5C 303.833,192.833 301.167,193.167 298.5,193.5C 295.41,193.478 292.743,192.812 290.5,191.5 Z"/></g>
<g><path style="opacity:1" fill="#24323e" d="M 434.5,191.5 C 437.898,191.18 441.232,191.513 444.5,192.5C 442.833,192.833 441.167,193.167 439.5,193.5C 437.36,193.444 435.694,192.777 434.5,191.5 Z"/></g>
<g><path style="opacity:0.91" fill="#010e17" d="M 229.5,195.5 C 229.879,198.253 231.379,200.253 234,201.5C 234.191,199.292 234.691,197.292 235.5,195.5C 235.034,201.491 234.701,207.491 234.5,213.5C 232.167,213.5 229.833,213.5 227.5,213.5C 227.5,213.167 227.5,212.833 227.5,212.5C 228.689,208.15 228.689,203.817 227.5,199.5C 228.853,198.476 229.52,197.143 229.5,195.5 Z"/></g>
<g><path style="opacity:1" fill="#50535a" d="M 355.5,198.5 C 358.187,198.336 360.854,198.503 363.5,199C 362.228,200.046 360.728,200.546 359,200.5C 357.319,200.392 356.152,199.725 355.5,198.5 Z"/></g>
<g><path style="opacity:1" fill="#111e29" d="M 434.5,197.5 C 440.868,197.17 447.202,197.504 453.5,198.5C 450.333,198.833 447.167,199.167 444,199.5C 440.424,199.485 437.258,198.818 434.5,197.5 Z"/></g>
<g><path style="opacity:1" fill="#7e8a9a" d="M 370.5,198.5 C 378.84,198.334 387.173,198.5 395.5,199C 391.342,200.139 387.009,200.639 382.5,200.5C 378.107,200.491 374.107,199.824 370.5,198.5 Z"/></g>
<g><path style="opacity:1" fill="#4b5660" d="M 398.5,198.5 C 404.537,198.171 410.537,198.504 416.5,199.5C 413.5,199.833 410.5,200.167 407.5,200.5C 404.087,200.483 401.087,199.816 398.5,198.5 Z"/></g>
<g><path style="opacity:1" fill="#c1c8d3" d="M 257.5,199.5 C 283.833,199.5 310.167,199.5 336.5,199.5C 334.038,220.828 331.538,242.161 329,263.5C 328.085,264.328 327.419,265.328 327,266.5C 314.407,267.162 301.74,267.495 289,267.5C 276.26,267.495 263.593,267.162 251,266.5C 250.333,262.833 250.333,259.167 251,255.5C 252.987,236.781 255.154,218.115 257.5,199.5 Z"/></g>
<g><path style="opacity:1" fill="#9fa5af" d="M 221.5,198.5 C 221.5,200.167 221.5,201.833 221.5,203.5C 219.821,203.715 218.821,203.048 218.5,201.5C 218.183,198.428 218.516,195.428 219.5,192.5C 220.477,194.411 221.143,196.411 221.5,198.5 Z"/></g>
<g><path style="opacity:1" fill="#1b222a" d="M 234.5,213.5 C 234.701,207.491 235.034,201.491 235.5,195.5C 236.5,190.5 234.5,188.5 229.5,189.5C 229.5,191.5 229.5,193.5 229.5,195.5C 229.52,197.143 228.853,198.476 227.5,199.5C 228.689,203.817 228.689,208.15 227.5,212.5C 227.167,212.5 226.833,212.5 226.5,212.5C 225.905,209.683 224.572,207.35 222.5,205.5C 222.5,205.167 222.5,204.833 222.5,204.5C 222.5,202.5 222.5,200.5 222.5,198.5C 224.265,197.539 226.265,197.205 228.5,197.5C 228.492,194.455 228.159,191.455 227.5,188.5C 230.833,188.5 234.167,188.5 237.5,188.5C 237.234,197.058 236.234,205.391 234.5,213.5 Z M 235.5,195.5 C 234.691,197.292 234.191,199.292 234,201.5C 231.379,200.253 229.879,198.253 229.5,195.5C 229.5,193.5 229.5,191.5 229.5,189.5C 234.5,188.5 236.5,190.5 235.5,195.5 Z"/></g>
<g><path style="opacity:1" fill="#747e88" d="M 86.5,202.5 C 83.5,202.5 80.5,202.5 77.5,202.5C 77.5,204.833 77.5,207.167 77.5,209.5C 80.5,209.5 83.5,209.5 86.5,209.5C 83.3752,210.479 80.0419,210.813 76.5,210.5C 76.5,207.5 76.5,204.5 76.5,201.5C 80.0419,201.187 83.3752,201.521 86.5,202.5 Z"/></g>
<g><path style="opacity:1" fill="#06121a" d="M 86.5,202.5 C 86.5,204.833 86.5,207.167 86.5,209.5C 83.5,209.5 80.5,209.5 77.5,209.5C 77.5,207.167 77.5,204.833 77.5,202.5C 80.5,202.5 83.5,202.5 86.5,202.5 Z"/></g>
<g><path style="opacity:1" fill="#71747c" d="M 221.5,198.5 C 221.833,198.5 222.167,198.5 222.5,198.5C 222.5,200.5 222.5,202.5 222.5,204.5C 221.057,205.335 220.057,206.668 219.5,208.5C 218.859,207.007 217.859,206.007 216.5,205.5C 216.989,204.005 217.655,202.671 218.5,201.5C 218.821,203.048 219.821,203.715 221.5,203.5C 221.5,201.833 221.5,200.167 221.5,198.5 Z"/></g>
<g><path style="opacity:1" fill="#172530" d="M 433.5,203.5 C 437.226,203.177 440.893,203.511 444.5,204.5C 442.667,204.833 440.833,205.167 439,205.5C 436.705,205.453 434.871,204.787 433.5,203.5 Z"/></g>
<g><path style="opacity:1" fill="#5d6168" d="M 354.5,204.5 C 357.247,204.187 359.914,204.52 362.5,205.5C 361.167,205.833 359.833,206.167 358.5,206.5C 356.667,206.415 355.334,205.748 354.5,204.5 Z"/></g>
<g><path style="opacity:1" fill="#525c67" d="M 370.5,203.5 C 373.5,203.5 376.5,203.5 379.5,203.5C 379.5,204.5 379.5,205.5 379.5,206.5C 376.102,206.82 372.768,206.487 369.5,205.5C 369.863,204.817 370.196,204.15 370.5,203.5 Z"/></g>
<g><path style="opacity:1" fill="#798696" d="M 382.5,204.5 C 388.206,204.171 393.872,204.505 399.5,205.5C 396.667,205.833 393.833,206.167 391,206.5C 387.748,206.481 384.915,205.814 382.5,204.5 Z"/></g>
<g><path style="opacity:1" fill="#8894a2" d="M 63.5,198.5 C 63.5,202.167 63.5,205.833 63.5,209.5C 66.1667,209.5 68.8333,209.5 71.5,209.5C 71.5,205.833 71.5,202.167 71.5,198.5C 72.4834,202.298 72.8168,206.298 72.5,210.5C 69.1667,210.5 65.8333,210.5 62.5,210.5C 62.1832,206.298 62.5166,202.298 63.5,198.5 Z"/></g>
<g><path style="opacity:1" fill="#5c6c7d" d="M 63.5,198.5 C 66.1667,198.5 68.8333,198.5 71.5,198.5C 71.5,202.167 71.5,205.833 71.5,209.5C 68.8333,209.5 66.1667,209.5 63.5,209.5C 63.5,205.833 63.5,202.167 63.5,198.5 Z"/></g>
<g><path style="opacity:1" fill="#787d85" d="M 222.5,205.5 C 224.572,207.35 225.905,209.683 226.5,212.5C 225.325,212.719 224.325,212.386 223.5,211.5C 222.652,209.591 222.318,207.591 222.5,205.5 Z"/></g>
<g><path style="opacity:1" fill="#3e4a54" d="M 275.5,210.5 C 281.868,210.17 288.202,210.504 294.5,211.5C 291.333,211.833 288.167,212.167 285,212.5C 281.424,212.485 278.258,211.818 275.5,210.5 Z"/></g>
<g><path style="opacity:1" fill="#7a8897" d="M 299.5,210.5 C 304.875,210.172 310.208,210.505 315.5,211.5C 312.833,211.833 310.167,212.167 307.5,212.5C 304.41,212.478 301.743,211.812 299.5,210.5 Z"/></g>
<g><path style="opacity:1" fill="#5a5e65" d="M 353.5,210.5 C 356.247,210.187 358.914,210.52 361.5,211.5C 360.167,211.833 358.833,212.167 357.5,212.5C 355.667,212.415 354.334,211.748 353.5,210.5 Z"/></g>
<g><path style="opacity:1" fill="#7b8998" d="M 368.5,210.5 C 375.532,210.17 382.532,210.503 389.5,211.5C 386,211.833 382.5,212.167 379,212.5C 375.098,212.488 371.598,211.821 368.5,210.5 Z"/></g>
<g><path style="opacity:1" fill="#3d4954" d="M 393.5,210.5 C 398.544,210.173 403.544,210.506 408.5,211.5C 406,211.833 403.5,212.167 401,212.5C 398.071,212.475 395.571,211.809 393.5,210.5 Z"/></g>
<g><path style="opacity:1" fill="#7f838b" d="M 95.5,211.5 C 106.773,212.146 118.106,212.813 129.5,213.5C 107.5,214.833 85.5,214.833 63.5,213.5C 74.3258,212.833 84.9924,212.167 95.5,211.5 Z"/></g>
<g><path style="opacity:1" fill="#2c3742" d="M 25.5,213.5 C 36.1667,213.5 46.8333,213.5 57.5,213.5C 57.5,214.5 57.5,215.5 57.5,216.5C 46.8333,216.5 36.1667,216.5 25.5,216.5C 25.5,215.5 25.5,214.5 25.5,213.5 Z"/></g>
<g><path style="opacity:1" fill="#010e16" d="M 146.5,215.5 C 147.525,215.897 147.692,216.563 147,217.5C 140.517,223.799 137.35,231.466 137.5,240.5C 100.167,240.5 62.8333,240.5 25.5,240.5C 25.5,241.5 25.5,242.5 25.5,243.5C 24.2382,234.641 24.2382,225.641 25.5,216.5C 36.1667,216.5 46.8333,216.5 57.5,216.5C 58.6266,217.122 59.6266,217.955 60.5,219C 84.8333,219.667 109.167,219.667 133.5,219C 134.942,218.623 135.942,217.79 136.5,216.5C 139.728,215.586 143.061,215.253 146.5,215.5 Z"/></g>
<g><path style="opacity:0.99" fill="#041119" d="M 227.5,216.5 C 229.5,216.5 231.5,216.5 233.5,216.5C 232.833,224.5 232.167,232.5 231.5,240.5C 228.615,240.806 225.948,240.473 223.5,239.5C 224.392,232.209 224.726,224.876 224.5,217.5C 225.791,217.737 226.791,217.404 227.5,216.5 Z"/></g>
<g><path style="opacity:1" fill="#585c64" d="M 352.5,216.5 C 355.247,216.187 357.914,216.52 360.5,217.5C 359.167,217.833 357.833,218.167 356.5,218.5C 354.667,218.415 353.334,217.748 352.5,216.5 Z"/></g>
<g><path style="opacity:1" fill="#6f7d8e" d="M 368.5,216.5 C 372.226,216.177 375.893,216.511 379.5,217.5C 377.667,217.833 375.833,218.167 374,218.5C 371.705,218.453 369.871,217.787 368.5,216.5 Z"/></g>
<g><path style="opacity:1" fill="#748292" d="M 382.5,216.5 C 385.722,216.108 388.722,216.608 391.5,218C 390,218.167 388.5,218.333 387,218.5C 385.014,218.431 383.514,217.765 382.5,216.5 Z"/></g>
<g><path style="opacity:0.741" fill="#63676d" d="M 470.5,212.5 C 470.243,218.688 469.577,224.688 468.5,230.5C 468.184,224.25 468.85,218.25 470.5,212.5 Z"/></g>
<g><path style="opacity:1" fill="#a1abb8" d="M 430.5,219.5 C 433.898,219.18 437.232,219.513 440.5,220.5C 438.833,220.833 437.167,221.167 435.5,221.5C 433.36,221.444 431.694,220.777 430.5,219.5 Z"/></g>
<g><path style="opacity:1" fill="#bbc2cd" d="M 222.5,204.5 C 222.5,204.833 222.5,205.167 222.5,205.5C 222.318,207.591 222.652,209.591 223.5,211.5C 224.325,212.386 225.325,212.719 226.5,212.5C 226.833,212.5 227.167,212.5 227.5,212.5C 227.5,212.833 227.5,213.167 227.5,213.5C 227.5,214.5 227.5,215.5 227.5,216.5C 226.791,217.404 225.791,217.737 224.5,217.5C 224.726,224.876 224.392,232.209 223.5,239.5C 219.936,240.423 216.269,240.756 212.5,240.5C 214.316,228.897 215.65,217.23 216.5,205.5C 217.859,206.007 218.859,207.007 219.5,208.5C 220.057,206.668 221.057,205.335 222.5,204.5 Z"/></g>
<g><path style="opacity:1" fill="#606f80" d="M 276.5,219.5 C 288.838,219.333 301.171,219.5 313.5,220C 314.059,220.725 314.392,221.558 314.5,222.5C 313.861,225.475 313.361,228.475 313,231.5C 312.5,232 312,232.5 311.5,233C 299.167,233.667 286.833,233.667 274.5,233C 273.289,228.224 273.955,223.724 276.5,219.5 Z"/></g>
<g><path style="opacity:1" fill="#445059" d="M 367.5,222.5 C 371.833,222.5 376.167,222.5 380.5,222.5C 380.5,223.5 380.5,224.5 380.5,225.5C 376.167,225.5 371.833,225.5 367.5,225.5C 367.5,224.5 367.5,223.5 367.5,222.5 Z"/></g>
<g><path style="opacity:1" fill="#35424b" d="M 400.5,223.5 C 395.025,224.489 389.358,224.822 383.5,224.5C 385.915,223.186 388.748,222.519 392,222.5C 395.021,222.502 397.854,222.836 400.5,223.5 Z"/></g>
<g><path style="opacity:1" fill="#6c7078" d="M 352.5,222.5 C 355.167,222.5 357.833,222.5 360.5,222.5C 360.5,223.5 360.5,224.5 360.5,225.5C 357.833,225.5 355.167,225.5 352.5,225.5C 352.5,224.5 352.5,223.5 352.5,222.5 Z"/></g>
<g><path style="opacity:1" fill="#6b757f" d="M 400.5,223.5 C 401.043,223.56 401.376,223.893 401.5,224.5C 395.346,225.817 389.346,225.817 383.5,224.5C 389.358,224.822 395.025,224.489 400.5,223.5 Z"/></g>
<g><path style="opacity:1" fill="#aeb6c3" d="M 429.5,225.5 C 434.544,225.173 439.544,225.506 444.5,226.5C 442,226.833 439.5,227.167 437,227.5C 434.071,227.475 431.571,226.809 429.5,225.5 Z"/></g>
<g><path style="opacity:1" fill="#a8b1be" d="M 428.5,231.5 C 432.555,231.176 436.555,231.509 440.5,232.5C 438.5,232.833 436.5,233.167 434.5,233.5C 432.048,233.461 430.048,232.794 428.5,231.5 Z"/></g>
<g><path style="opacity:1" fill="#575a61" d="M 350.5,235.5 C 353.247,235.187 355.914,235.52 358.5,236.5C 357.167,236.833 355.833,237.167 354.5,237.5C 352.667,237.415 351.334,236.748 350.5,235.5 Z"/></g>
<g><path style="opacity:1" fill="#7b8897" d="M 365.5,235.5 C 368.898,235.18 372.232,235.513 375.5,236.5C 373.833,236.833 372.167,237.167 370.5,237.5C 368.36,237.444 366.694,236.777 365.5,235.5 Z"/></g>
<g><path style="opacity:1" fill="#768493" d="M 378.5,235.5 C 384.206,235.171 389.872,235.505 395.5,236.5C 392.667,236.833 389.833,237.167 387,237.5C 383.748,237.481 380.915,236.814 378.5,235.5 Z"/></g>
<g><path style="opacity:0.608" fill="#5f6268" d="M 468.5,232.5 C 468.016,240.703 467.016,248.703 465.5,256.5C 465.558,249.14 466.058,241.806 467,234.5C 467.278,233.584 467.778,232.918 468.5,232.5 Z"/></g>
<g><path style="opacity:1" fill="#63666c" d="M 195.5,235.5 C 194.076,237.515 193.41,239.848 193.5,242.5C 185.167,242.5 176.833,242.5 168.5,242.5C 176.316,241.508 184.316,241.174 192.5,241.5C 192.523,239.073 193.023,236.74 194,234.5C 195.107,233.288 195.607,233.621 195.5,235.5 Z"/></g>
<g><path style="opacity:1" fill="#bcc3cd" d="M 195.5,235.5 C 195.838,237.854 196.338,240.187 197,242.5C 198.454,235.862 199.621,235.862 200.5,242.5C 200.5,245.833 200.5,249.167 200.5,252.5C 194.919,251.918 189.586,250.418 184.5,248C 179.011,247.068 173.677,247.568 168.5,249.5C 167.702,249.043 167.369,248.376 167.5,247.5C 167.5,246.5 167.5,245.5 167.5,244.5C 168.338,244.158 168.672,243.492 168.5,242.5C 176.833,242.5 185.167,242.5 193.5,242.5C 193.41,239.848 194.076,237.515 195.5,235.5 Z"/></g>
<g><path style="opacity:1" fill="#5d6168" d="M 349.5,241.5 C 352.247,241.187 354.914,241.52 357.5,242.5C 356.167,242.833 354.833,243.167 353.5,243.5C 351.667,243.415 350.334,242.748 349.5,241.5 Z"/></g>
<g><path style="opacity:1" fill="#414d57" d="M 389.5,241.5 C 394.544,241.173 399.544,241.506 404.5,242.5C 402,242.833 399.5,243.167 397,243.5C 394.071,243.475 391.571,242.809 389.5,241.5 Z"/></g>
<g><path style="opacity:1" fill="#768393" d="M 364.5,241.5 C 371.532,241.17 378.532,241.503 385.5,242.5C 382,242.833 378.5,243.167 375,243.5C 371.098,243.488 367.598,242.821 364.5,241.5 Z"/></g>
<g><path style="opacity:1" fill="#000d16" d="M 25.5,243.5 C 73.0029,243.168 120.336,243.501 167.5,244.5C 167.5,245.5 167.5,246.5 167.5,247.5C 166.596,248.209 166.263,249.209 166.5,250.5C 165.178,250.33 164.011,250.663 163,251.5C 161.548,254.737 160.381,258.07 159.5,261.5C 153.411,262.214 148.077,264.547 143.5,268.5C 105.494,268.167 67.4942,268.5 29.5,269.5C 66.494,270.5 103.494,270.833 140.5,270.5C 137.69,272.974 135.69,275.974 134.5,279.5C 133.596,280.209 133.263,281.209 133.5,282.5C 111.497,282.333 89.4975,282.5 67.5,283C 61.7324,285.263 58.3991,289.43 57.5,295.5C 50.3134,295.175 43.3134,295.509 36.5,296.5C 29.9502,279.566 26.2835,261.899 25.5,243.5 Z"/></g>
<g><path style="opacity:0.701" fill="#030f18" d="M 201.5,243.5 C 211.167,243.5 220.833,243.5 230.5,243.5C 230.802,246.059 230.468,248.393 229.5,250.5C 229.5,248.5 229.5,246.5 229.5,244.5C 222.749,245.251 216.249,246.918 210,249.5C 208.218,254.541 208.384,259.541 210.5,264.5C 208.254,263.545 205.921,262.878 203.5,262.5C 203.756,260.063 204.423,257.729 205.5,255.5C 204.68,253.889 203.346,253.222 201.5,253.5C 201.5,250.167 201.5,246.833 201.5,243.5 Z"/></g>
<g><path style="opacity:1" fill="#1e2c37" d="M 427.5,245.5 C 430.572,245.183 433.572,245.516 436.5,246.5C 435,246.833 433.5,247.167 432,247.5C 430.014,247.431 428.514,246.765 427.5,245.5 Z"/></g>
<g><path style="opacity:1" fill="#70747c" d="M 348.5,247.5 C 351.572,247.183 354.572,247.516 357.5,248.5C 356.473,250.024 354.973,250.691 353,250.5C 350.374,250.95 348.874,249.95 348.5,247.5 Z"/></g>
<g><path style="opacity:1" fill="#7e8b9a" d="M 379.5,247.5 C 385.5,247.5 391.5,247.5 397.5,247.5C 397.5,248.5 397.5,249.5 397.5,250.5C 391.5,250.5 385.5,250.5 379.5,250.5C 379.5,249.5 379.5,248.5 379.5,247.5 Z"/></g>
<g><path style="opacity:1" fill="#5c6570" d="M 364.5,247.5 C 368.167,247.5 371.833,247.5 375.5,247.5C 375.5,248.5 375.5,249.5 375.5,250.5C 371.833,250.5 368.167,250.5 364.5,250.5C 364.5,249.5 364.5,248.5 364.5,247.5 Z"/></g>
<g><path style="opacity:1" fill="#13202b" d="M 426.5,251.5 C 433.2,251.17 439.866,251.503 446.5,252.5C 443.167,252.833 439.833,253.167 436.5,253.5C 432.761,253.486 429.428,252.82 426.5,251.5 Z"/></g>
<g><path style="opacity:1" fill="#54575e" d="M 348.5,253.5 C 351.397,253.125 354.063,253.625 356.5,255C 355.167,255.167 353.833,255.333 352.5,255.5C 350.667,255.415 349.334,254.748 348.5,253.5 Z"/></g>
<g><path style="opacity:1" fill="#84919f" d="M 363.5,254.5 C 371.86,254.169 380.193,254.502 388.5,255.5C 384.333,255.833 380.167,256.167 376,256.5C 371.443,256.491 367.276,255.825 363.5,254.5 Z"/></g>
<g><path style="opacity:1" fill="#768493" d="M 258.5,255.5 C 262.226,255.177 265.893,255.511 269.5,256.5C 267.667,256.833 265.833,257.167 264,257.5C 261.705,257.453 259.871,256.787 258.5,255.5 Z"/></g>
<g><path style="opacity:1" fill="#343f49" d="M 279.5,255.5 C 282.572,255.183 285.572,255.516 288.5,256.5C 287,256.833 285.5,257.167 284,257.5C 282.014,257.431 280.514,256.765 279.5,255.5 Z"/></g>
<g><path style="opacity:1" fill="#36424b" d="M 315.5,255.5 C 318.898,255.18 322.232,255.513 325.5,256.5C 323.833,256.833 322.167,257.167 320.5,257.5C 318.36,257.444 316.694,256.777 315.5,255.5 Z"/></g>
<g><path style="opacity:1" fill="#172530" d="M 425.5,257.5 C 429.226,257.177 432.893,257.511 436.5,258.5C 434.667,258.833 432.833,259.167 431,259.5C 428.705,259.453 426.871,258.787 425.5,257.5 Z"/></g>
<g><path style="opacity:1" fill="#2b3640" d="M 258.5,260.5 C 260.604,260.201 262.604,260.534 264.5,261.5C 263.5,261.833 262.5,262.167 261.5,262.5C 259.97,262.36 258.97,261.693 258.5,260.5 Z"/></g>
<g><path style="opacity:1" fill="#728190" d="M 278.5,260.5 C 280.604,260.201 282.604,260.534 284.5,261.5C 283.5,261.833 282.5,262.167 281.5,262.5C 279.97,262.36 278.97,261.693 278.5,260.5 Z"/></g>
<g><path style="opacity:1" fill="#2e3a43" d="M 296.5,260.5 C 299.572,260.183 302.572,260.516 305.5,261.5C 304,261.833 302.5,262.167 301,262.5C 299.014,262.431 297.514,261.765 296.5,260.5 Z"/></g>
<g><path style="opacity:1" fill="#738190" d="M 315.5,260.5 C 317.604,260.201 319.604,260.534 321.5,261.5C 320.5,261.833 319.5,262.167 318.5,262.5C 316.97,262.36 315.97,261.693 315.5,260.5 Z"/></g>
<g><path style="opacity:0.213" fill="#152029" d="M 229.5,254.5 C 229.563,259.203 229.229,263.87 228.5,268.5C 223.156,268.666 217.823,268.499 212.5,268C 211.177,267.184 210.511,266.017 210.5,264.5C 211.627,265.122 212.627,265.955 213.5,267C 218.155,267.499 222.821,267.666 227.5,267.5C 227.77,262.972 228.437,258.639 229.5,254.5 Z"/></g>
<g><path style="opacity:1" fill="#5b6670" d="M 143.5,268.5 C 143.5,268.833 143.5,269.167 143.5,269.5C 142.209,269.263 141.209,269.596 140.5,270.5C 103.494,270.833 66.494,270.5 29.5,269.5C 67.4942,268.5 105.494,268.167 143.5,268.5 Z"/></g>
<g><path style="opacity:1" fill="#c1c8d3" d="M 236.5,323.5 C 236.932,324.71 237.599,325.71 238.5,326.5C 242.312,334.792 246.646,342.792 251.5,350.5C 251.932,351.71 252.599,352.71 253.5,353.5C 253.5,354.167 253.833,354.5 254.5,354.5C 254.916,356.752 256.249,358.252 258.5,359C 266.427,360.878 274.427,361.878 282.5,362C 280.618,361.802 278.952,361.302 277.5,360.5C 278.391,359.89 279.391,359.557 280.5,359.5C 285.916,357.367 291.583,356.034 297.5,355.5C 298.609,355.557 299.609,355.89 300.5,356.5C 301.436,357.974 302.77,358.974 304.5,359.5C 305.167,360.5 305.833,361.5 306.5,362.5C 306.631,363.376 306.298,364.043 305.5,364.5C 303.657,364.245 301.657,364.078 299.5,364C 298.033,362.902 297.199,361.402 297,359.5C 296.51,360.793 296.343,362.127 296.5,363.5C 292.168,362.903 287.835,362.737 283.5,363C 292.924,365.561 302.59,367.061 312.5,367.5C 313.833,367.5 315.167,367.5 316.5,367.5C 319.314,368.165 322.314,368.498 325.5,368.5C 329.797,368.722 333.797,368.055 337.5,366.5C 340.397,365.871 343.064,364.871 345.5,363.5C 346.93,362.463 348.597,361.796 350.5,361.5C 352.167,361.5 353.833,361.5 355.5,361.5C 356.5,362.167 357.5,362.833 358.5,363.5C 358.579,364.93 358.246,366.264 357.5,367.5C 359.387,369.04 361.22,370.707 363,372.5C 363.74,373.749 363.573,374.749 362.5,375.5C 360.766,371.668 357.766,370.502 353.5,372C 351.695,372.972 350.028,374.139 348.5,375.5C 347.914,375.291 347.414,374.957 347,374.5C 346.727,376.329 345.893,377.829 344.5,379C 341.907,381.114 339.24,382.947 336.5,384.5C 333.167,384.5 329.833,384.5 326.5,384.5C 325.791,383.596 324.791,383.263 323.5,383.5C 323.657,382.127 323.49,380.793 323,379.5C 322.333,380.833 321.667,380.833 321,379.5C 320.517,380.448 320.351,381.448 320.5,382.5C 295.816,382.763 271.15,382.43 246.5,381.5C 243.027,381.424 239.694,380.758 236.5,379.5C 236.5,378.833 236.167,378.5 235.5,378.5C 231.17,374.002 227.003,369.335 223,364.5C 222.685,365.908 223.018,367.241 224,368.5C 226.696,372.361 229.863,375.694 233.5,378.5C 228.5,378.5 223.5,378.5 218.5,378.5C 216.904,369.607 216.07,360.607 216,351.5C 211.981,342.129 207.481,333.129 202.5,324.5C 203.534,328.243 204.868,331.91 206.5,335.5C 204.048,336.314 201.715,335.814 199.5,334C 197.598,332.27 195.931,330.437 194.5,328.5C 191.208,317.331 188.541,305.998 186.5,294.5C 185.901,287.609 186.735,280.942 189,274.5C 197.63,266.301 205.963,266.634 214,275.5C 220.853,291.936 228.353,307.936 236.5,323.5 Z"/></g>
<g><path style="opacity:1" fill="#9aa4b2" d="M 415.5,275.5 C 390.455,275.186 365.455,275.519 340.5,276.5C 340.611,275.883 340.944,275.383 341.5,275C 366.337,274.17 391.003,274.337 415.5,275.5 Z"/></g>
<g><path style="opacity:1" fill="#aeb6c1" d="M 143.5,269.5 C 140.57,273.292 139.237,277.625 139.5,282.5C 137.833,282.5 136.167,282.5 134.5,282.5C 134.5,281.5 134.5,280.5 134.5,279.5C 135.69,275.974 137.69,272.974 140.5,270.5C 141.209,269.596 142.209,269.263 143.5,269.5 Z"/></g>
<g><path style="opacity:1" fill="#bdc5d0" d="M 250.5,274.5 C 265.504,274.333 280.504,274.5 295.5,275C 296.718,276.438 297.385,278.105 297.5,280C 296.535,286.237 295.368,292.404 294,298.5C 293.25,299.126 292.416,299.626 291.5,300C 276.833,300.667 262.167,300.667 247.5,300C 245.941,298.004 245.274,295.671 245.5,293C 245.927,288.159 246.427,283.326 247,278.5C 248.376,277.295 249.542,275.962 250.5,274.5 Z"/></g>
<g><path style="opacity:1" fill="#bec5d1" d="M 415.5,275.5 C 416.117,275.611 416.617,275.944 417,276.5C 416.609,291.633 415.109,306.633 412.5,321.5C 398.156,320.314 383.823,320.314 369.5,321.5C 367.603,320.195 365.269,319.529 362.5,319.5C 359.731,319.529 357.397,320.195 355.5,321.5C 351.444,321.708 347.61,321.042 344,319.5C 342.408,319.605 340.908,319.939 339.5,320.5C 337.833,320.5 336.167,320.5 334.5,320.5C 334.681,305.525 336.681,290.858 340.5,276.5C 365.455,275.519 390.455,275.186 415.5,275.5 Z"/></g>
<g><path style="opacity:0.706" fill="#051119" d="M 227.5,270.5 C 227.04,278.705 226.04,286.705 224.5,294.5C 222.24,286.224 218.907,278.39 214.5,271C 218.821,270.501 223.154,270.334 227.5,270.5 Z M 220.5,271.5 C 218.477,276.788 220.144,280.121 225.5,281.5C 225.616,278.14 225.949,274.807 226.5,271.5C 224.5,271.5 222.5,271.5 220.5,271.5 Z"/></g>
<g><path style="opacity:1" fill="#47525c" d="M 257.5,278.5 C 260.957,278.667 261.29,279.667 258.5,281.5C 257.614,280.675 257.281,279.675 257.5,278.5 Z"/></g>
<g><path style="opacity:1" fill="#70747c" d="M 262.5,278.5 C 263.5,278.5 264.5,278.5 265.5,278.5C 265.5,279.5 265.5,280.5 265.5,281.5C 264.5,281.5 263.5,281.5 262.5,281.5C 262.5,280.5 262.5,279.5 262.5,278.5 Z"/></g>
<g><path style="opacity:1" fill="#393a3f" d="M 134.5,279.5 C 134.5,280.5 134.5,281.5 134.5,282.5C 136.167,282.5 137.833,282.5 139.5,282.5C 151.171,282.333 162.838,282.5 174.5,283C 180.611,284.845 184.611,288.678 186.5,294.5C 188.541,305.998 191.208,317.331 194.5,328.5C 196.893,341.737 200.06,354.737 204,367.5C 205.074,376.446 201.241,382.279 192.5,385C 176.837,385.5 161.17,385.667 145.5,385.5C 145.823,392.022 145.49,398.355 144.5,404.5C 144.5,402.833 144.5,401.167 144.5,399.5C 141.5,399.5 138.5,399.5 135.5,399.5C 135.5,397.167 135.5,394.833 135.5,392.5C 135.833,392.5 136.167,392.5 136.5,392.5C 136.5,394.5 136.5,396.5 136.5,398.5C 139.167,398.5 141.833,398.5 144.5,398.5C 144.5,394.167 144.5,389.833 144.5,385.5C 142.167,385.5 139.833,385.5 137.5,385.5C 137.727,377.79 138.394,370.123 139.5,362.5C 139.833,357.167 140.167,351.833 140.5,346.5C 133.91,346.189 127.41,346.522 121,347.5C 120.129,355.171 119.296,362.838 118.5,370.5C 116.988,375.929 116.321,381.596 116.5,387.5C 116.672,388.492 116.338,389.158 115.5,389.5C 115.5,388.167 115.5,386.833 115.5,385.5C 103.833,385.5 92.1667,385.5 80.5,385.5C 79.3078,382.438 77.8078,379.438 76,376.5C 75.1785,373.883 74.6785,371.216 74.5,368.5C 73.2436,363.218 72.2436,357.885 71.5,352.5C 68.8333,352.5 66.1667,352.5 63.5,352.5C 63.5,351.5 63.5,350.5 63.5,349.5C 65.5,349.5 67.5,349.5 69.5,349.5C 67.7284,341.208 66.0618,332.874 64.5,324.5C 58.8333,324.5 53.1667,324.5 47.5,324.5C 47.5,323.833 47.5,323.167 47.5,322.5C 52.8333,322.5 58.1667,322.5 63.5,322.5C 61.5,314.167 59.5,305.833 57.5,297.5C 50.5,297.5 43.5,297.5 36.5,297.5C 36.5,297.167 36.5,296.833 36.5,296.5C 43.3134,295.509 50.3134,295.175 57.5,295.5C 58.3991,289.43 61.7324,285.263 67.5,283C 89.4975,282.5 111.497,282.333 133.5,282.5C 133.263,281.209 133.596,280.209 134.5,279.5 Z"/></g>
<g><path style="opacity:1" fill="#595d64" d="M 344.5,282.5 C 347.247,282.187 349.914,282.52 352.5,283.5C 351.167,283.833 349.833,284.167 348.5,284.5C 346.667,284.415 345.334,283.748 344.5,282.5 Z"/></g>
<g><path style="opacity:1" fill="#778493" d="M 359.5,282.5 C 372.184,282.168 384.851,282.501 397.5,283.5C 391.167,283.833 384.833,284.167 378.5,284.5C 371.796,284.496 365.463,283.83 359.5,282.5 Z"/></g>
<g><path style="opacity:1" fill="#84919f" d="M 263.5,286.5 C 268.833,286.5 274.167,286.5 279.5,286.5C 279.5,287.5 279.5,288.5 279.5,289.5C 274.167,289.5 268.833,289.5 263.5,289.5C 263.5,288.5 263.5,287.5 263.5,286.5 Z"/></g>
<g><path style="opacity:1" fill="#585c63" d="M 343.5,288.5 C 346.247,288.187 348.914,288.52 351.5,289.5C 350.167,289.833 348.833,290.167 347.5,290.5C 345.667,290.415 344.334,289.748 343.5,288.5 Z"/></g>
<g><path style="opacity:1" fill="#778594" d="M 359.5,288.5 C 364.214,288.173 368.88,288.507 373.5,289.5C 371.167,289.833 368.833,290.167 366.5,290.5C 363.731,290.471 361.397,289.805 359.5,288.5 Z"/></g>
<g><path style="opacity:1" fill="#3b4651" d="M 378.5,288.5 C 387.525,288.168 396.525,288.502 405.5,289.5C 401,289.833 396.5,290.167 392,290.5C 387.114,290.493 382.614,289.826 378.5,288.5 Z"/></g>
<g><path style="opacity:0.863" fill="#71757c" d="M 462.5,283.5 C 462.21,290.016 461.543,296.35 460.5,302.5C 460.156,295.918 460.823,289.584 462.5,283.5 Z"/></g>
<g><path style="opacity:1" fill="#72777f" d="M 342.5,294.5 C 345.572,294.183 348.572,294.516 351.5,295.5C 350.473,297.024 348.973,297.691 347,297.5C 344.374,297.95 342.874,296.95 342.5,294.5 Z"/></g>
<g><path style="opacity:1" fill="#1f2a33" d="M 257.5,293.5 C 260.833,293.5 264.167,293.5 267.5,293.5C 267.67,294.822 267.337,295.989 266.5,297C 263.518,297.498 260.518,297.665 257.5,297.5C 257.5,296.167 257.5,294.833 257.5,293.5 Z"/></g>
<g><path style="opacity:1" fill="#6b7a8a" d="M 274.5,293.5 C 277.833,293.5 281.167,293.5 284.5,293.5C 284.67,294.822 284.337,295.989 283.5,297C 280.518,297.498 277.518,297.665 274.5,297.5C 274.5,296.167 274.5,294.833 274.5,293.5 Z"/></g>
<g><path style="opacity:1" fill="#8c98a6" d="M 358.5,294.5 C 368.833,294.5 379.167,294.5 389.5,294.5C 389.5,295.5 389.5,296.5 389.5,297.5C 379.167,297.5 368.833,297.5 358.5,297.5C 358.5,296.5 358.5,295.5 358.5,294.5 Z"/></g>
<g><path style="opacity:1" fill="#000d16" d="M 36.5,297.5 C 43.5,297.5 50.5,297.5 57.5,297.5C 59.5,305.833 61.5,314.167 63.5,322.5C 58.1667,322.5 52.8333,322.5 47.5,322.5C 43.2673,314.488 39.6006,306.154 36.5,297.5 Z"/></g>
<g><path style="opacity:1" fill="#9ba5b2" d="M 421.5,301.5 C 424.5,301.5 427.5,301.5 430.5,301.5C 430.5,302.5 430.5,303.5 430.5,304.5C 427.102,304.82 423.768,304.487 420.5,303.5C 420.863,302.817 421.196,302.15 421.5,301.5 Z"/></g>
<g><path style="opacity:1" fill="#54575e" d="M 341.5,307.5 C 344.247,307.187 346.914,307.52 349.5,308.5C 348.167,308.833 346.833,309.167 345.5,309.5C 343.667,309.415 342.334,308.748 341.5,307.5 Z"/></g>
<g><path style="opacity:1" fill="#758392" d="M 356.5,307.5 C 369.184,307.168 381.851,307.501 394.5,308.5C 388.167,308.833 381.833,309.167 375.5,309.5C 368.796,309.496 362.463,308.83 356.5,307.5 Z"/></g>
<g><path style="opacity:1" fill="#9fa9b6" d="M 420.5,308.5 C 425.544,308.173 430.544,308.506 435.5,309.5C 433,309.833 430.5,310.167 428,310.5C 425.071,310.475 422.571,309.809 420.5,308.5 Z"/></g>
<g><path style="opacity:0.706" fill="#71767c" d="M 460.5,303.5 C 460.329,308.196 459.829,312.863 459,317.5C 458.722,318.416 458.222,319.082 457.5,319.5C 457.962,314.838 458.462,310.171 459,305.5C 459.278,304.584 459.778,303.918 460.5,303.5 Z"/></g>
<g><path style="opacity:1" fill="#5c6068" d="M 340.5,313.5 C 343.247,313.187 345.914,313.52 348.5,314.5C 347.167,314.833 345.833,315.167 344.5,315.5C 342.667,315.415 341.334,314.748 340.5,313.5 Z"/></g>
<g><path style="opacity:1" fill="#414c56" d="M 356.5,313.5 C 369.184,313.168 381.851,313.501 394.5,314.5C 388.167,314.833 381.833,315.167 375.5,315.5C 368.796,315.496 362.463,314.83 356.5,313.5 Z"/></g>
<g><path style="opacity:1" fill="#aeb7c2" d="M 419.5,314.5 C 423.226,314.177 426.893,314.511 430.5,315.5C 428.667,315.833 426.833,316.167 425,316.5C 422.705,316.453 420.871,315.787 419.5,314.5 Z"/></g>
<g><path style="opacity:1" fill="#868b93" d="M 202.5,324.5 C 200.254,322.351 198.754,319.684 198,316.5C 196.333,315.5 194.667,314.5 193,313.5C 192.333,312.833 192.333,312.167 193,311.5C 194.512,313.957 195.846,313.957 197,311.5C 199.711,315.468 201.544,319.802 202.5,324.5 Z"/></g>
<g><path style="opacity:1" fill="#65707d" d="M 369.5,321.5 C 364.833,321.5 360.167,321.5 355.5,321.5C 357.397,320.195 359.731,319.529 362.5,319.5C 365.269,319.529 367.603,320.195 369.5,321.5 Z"/></g>
<g><path style="opacity:1" fill="#020e17" d="M 47.5,324.5 C 53.1667,324.5 58.8333,324.5 64.5,324.5C 66.0618,332.874 67.7284,341.208 69.5,349.5C 67.5,349.5 65.5,349.5 63.5,349.5C 63.5,350.5 63.5,351.5 63.5,352.5C 58.1958,343.234 52.8625,333.901 47.5,324.5 Z"/></g>
<g><path style="opacity:1" fill="#020f17" d="M 344.5,346.5 C 330.323,346.171 316.323,346.504 302.5,347.5C 300.57,347.771 299.236,348.771 298.5,350.5C 282.833,350.5 267.167,350.5 251.5,350.5C 246.646,342.792 242.312,334.792 238.5,326.5C 272.329,325.502 306.329,325.168 340.5,325.5C 341.833,332.5 343.167,339.5 344.5,346.5 Z"/></g>
<g><path style="opacity:0.809" fill="#030f17" d="M 417.5,325.5 C 416.469,326.249 415.302,326.915 414,327.5C 410.835,333.834 407.169,339.834 403,345.5C 402.53,346.577 402.697,347.577 403.5,348.5C 399.097,346.701 394.43,346.034 389.5,346.5C 389.552,344.097 389.219,341.764 388.5,339.5C 388.5,338.833 388.5,338.167 388.5,337.5C 389.661,340.102 390.828,342.769 392,345.5C 391.631,342.21 391.631,338.877 392,335.5C 394.54,333.295 396.707,330.795 398.5,328C 394.472,327.608 390.472,327.108 386.5,326.5C 386.5,327.833 386.5,329.167 386.5,330.5C 385.566,329.432 385.232,328.099 385.5,326.5C 395.987,325.506 406.654,325.172 417.5,325.5 Z"/></g>
<g><path style="opacity:1" fill="#bfc6d1" d="M 385.5,326.5 C 385.232,328.099 385.566,329.432 386.5,330.5C 386.5,331.167 386.5,331.833 386.5,332.5C 386.41,335.152 387.076,337.485 388.5,339.5C 389.219,341.764 389.552,344.097 389.5,346.5C 394.43,346.034 399.097,346.701 403.5,348.5C 403.833,349.167 404.167,349.833 404.5,350.5C 404.5,351.5 404.5,352.5 404.5,353.5C 369.167,353.5 333.833,353.5 298.5,353.5C 298.5,352.833 298.5,352.167 298.5,351.5C 298.5,351.167 298.5,350.833 298.5,350.5C 299.236,348.771 300.57,347.771 302.5,347.5C 330.167,347.5 357.833,347.5 385.5,347.5C 385.768,345.901 385.434,344.568 384.5,343.5C 382.536,337.645 381.203,331.645 380.5,325.5C 382.292,325.366 383.958,325.699 385.5,326.5 Z"/></g>
<g><path style="opacity:1" fill="#5b6b7b" d="M 202.5,324.5 C 207.481,333.129 211.981,342.129 216,351.5C 216.07,360.607 216.904,369.607 218.5,378.5C 223.5,378.5 228.5,378.5 233.5,378.5C 234.167,378.5 234.833,378.5 235.5,378.5C 236.167,378.5 236.5,378.833 236.5,379.5C 230.794,379.171 225.128,379.505 219.5,380.5C 219.994,382.026 220.661,383.359 221.5,384.5C 221.5,384.833 221.5,385.167 221.5,385.5C 221.328,386.492 221.662,387.158 222.5,387.5C 222.328,388.492 222.662,389.158 223.5,389.5C 224.892,392.007 225.892,394.673 226.5,397.5C 226.5,397.833 226.5,398.167 226.5,398.5C 223.452,416.715 212.785,427.549 194.5,431C 180.624,433.195 166.957,432.362 153.5,428.5C 150.909,427.746 149.076,426.079 148,423.5C 146.92,417.861 146.087,412.195 145.5,406.5C 141.833,406.5 138.167,406.5 134.5,406.5C 134.198,403.941 134.532,401.607 135.5,399.5C 135.5,401.167 135.5,402.833 135.5,404.5C 138.5,404.5 141.5,404.5 144.5,404.5C 145.49,398.355 145.823,392.022 145.5,385.5C 161.17,385.667 176.837,385.5 192.5,385C 201.241,382.279 205.074,376.446 204,367.5C 200.06,354.737 196.893,341.737 194.5,328.5C 195.931,330.437 197.598,332.27 199.5,334C 201.715,335.814 204.048,336.314 206.5,335.5C 204.868,331.91 203.534,328.243 202.5,324.5 Z"/></g>
<g><path style="opacity:0.89" fill="#5d6771" d="M 386.5,332.5 C 387.537,333.93 388.204,335.597 388.5,337.5C 388.5,338.167 388.5,338.833 388.5,339.5C 387.076,337.485 386.41,335.152 386.5,332.5 Z"/></g>
<g><path style="opacity:1" fill="#8d959f" d="M 384.5,343.5 C 385.434,344.568 385.768,345.901 385.5,347.5C 357.833,347.5 330.167,347.5 302.5,347.5C 316.323,346.504 330.323,346.171 344.5,346.5C 357.833,346.5 371.167,346.5 384.5,346.5C 384.5,345.5 384.5,344.5 384.5,343.5 Z"/></g>
<g><path style="opacity:1" fill="#c0c7d2" d="M 139.5,362.5 C 137.982,365.534 137.149,368.867 137,372.5C 136.389,379.164 135.889,385.83 135.5,392.5C 135.5,394.833 135.5,397.167 135.5,399.5C 134.532,401.607 134.198,403.941 134.5,406.5C 132.387,417.602 131.054,428.935 130.5,440.5C 129.694,447.26 128.694,454.093 127.5,461C 121.5,461.667 115.5,461.667 109.5,461C 108.536,456.934 108.203,452.767 108.5,448.5C 111.227,436.109 112.894,423.442 113.5,410.5C 114.461,408.735 114.795,406.735 114.5,404.5C 115.053,399.518 115.387,394.518 115.5,389.5C 116.338,389.158 116.672,388.492 116.5,387.5C 117.737,382.04 118.404,376.373 118.5,370.5C 119.296,362.838 120.129,355.171 121,347.5C 127.41,346.522 133.91,346.189 140.5,346.5C 140.167,351.833 139.833,357.167 139.5,362.5 Z"/></g>
<g><path style="opacity:1" fill="#767f8a" d="M 251.5,350.5 C 267.167,350.5 282.833,350.5 298.5,350.5C 298.5,350.833 298.5,351.167 298.5,351.5C 283.129,350.85 268.129,351.516 253.5,353.5C 252.599,352.71 251.932,351.71 251.5,350.5 Z"/></g>
<g><path style="opacity:0.998" fill="#040f16" d="M 63.5,352.5 C 66.1667,352.5 68.8333,352.5 71.5,352.5C 72.2436,357.885 73.2436,363.218 74.5,368.5C 70.8461,363.204 67.1794,357.871 63.5,352.5 Z"/></g>
<g><path style="opacity:1" fill="#08131b" d="M 297.5,354.5 C 291.183,354.388 285.517,356.054 280.5,359.5C 279.391,359.557 278.391,359.89 277.5,360.5C 269.871,359.512 262.538,357.512 255.5,354.5C 255.389,353.883 255.056,353.383 254.5,353C 261.667,352.833 268.833,352.667 276,352.5C 283.533,352.503 290.699,353.169 297.5,354.5 Z"/></g>
<g><path style="opacity:1" fill="#6b7179" d="M 404.5,350.5 C 405.404,351.209 405.737,352.209 405.5,353.5C 405.5,353.833 405.5,354.167 405.5,354.5C 369.663,354.832 333.996,354.498 298.5,353.5C 333.833,353.5 369.167,353.5 404.5,353.5C 404.5,352.5 404.5,351.5 404.5,350.5 Z"/></g>
<g><path style="opacity:1" fill="#1a252e" d="M 298.5,351.5 C 298.5,352.167 298.5,352.833 298.5,353.5C 333.996,354.498 369.663,354.832 405.5,354.5C 370.5,355.167 335.5,355.833 300.5,356.5C 299.609,355.89 298.609,355.557 297.5,355.5C 297.5,355.167 297.5,354.833 297.5,354.5C 290.699,353.169 283.533,352.503 276,352.5C 268.833,352.667 261.667,352.833 254.5,353C 255.056,353.383 255.389,353.883 255.5,354.5C 255.167,354.5 254.833,354.5 254.5,354.5C 253.833,354.5 253.5,354.167 253.5,353.5C 268.129,351.516 283.129,350.85 298.5,351.5 Z"/></g>
<g><path style="opacity:1" fill="#868e99" d="M 297.5,354.5 C 297.5,354.833 297.5,355.167 297.5,355.5C 291.583,356.034 285.916,357.367 280.5,359.5C 285.517,356.054 291.183,354.388 297.5,354.5 Z"/></g>
<g><path style="opacity:1" fill="#020e16" d="M 405.5,353.5 C 412.947,353.071 420.281,353.571 427.5,355C 433.091,364.853 439.424,374.186 446.5,383C 452.016,383.173 457.349,383.673 462.5,384.5C 446.756,384.817 431.089,384.484 415.5,383.5C 410.3,375.609 404.967,367.775 399.5,360C 397.866,359.506 396.199,359.34 394.5,359.5C 370.167,359.5 345.833,359.5 321.5,359.5C 315.833,359.5 310.167,359.5 304.5,359.5C 302.77,358.974 301.436,357.974 300.5,356.5C 335.5,355.833 370.5,355.167 405.5,354.5C 405.5,354.167 405.5,353.833 405.5,353.5 Z"/></g>
<g><path style="opacity:1" fill="#7c818a" d="M 254.5,354.5 C 254.833,354.5 255.167,354.5 255.5,354.5C 262.538,357.512 269.871,359.512 277.5,360.5C 278.952,361.302 280.618,361.802 282.5,362C 274.427,361.878 266.427,360.878 258.5,359C 256.249,358.252 254.916,356.752 254.5,354.5 Z"/></g>
<g><path style="opacity:1" fill="#1c232a" d="M 321.5,360.5 C 321.5,360.167 321.5,359.833 321.5,359.5C 345.833,359.5 370.167,359.5 394.5,359.5C 394.5,359.833 394.5,360.167 394.5,360.5C 381.323,360.171 368.323,360.505 355.5,361.5C 353.833,361.5 352.167,361.5 350.5,361.5C 341.014,360.506 331.348,360.173 321.5,360.5 Z"/></g>
<g><path style="opacity:1" fill="#3a3c41" d="M 304.5,359.5 C 310.167,359.5 315.833,359.5 321.5,359.5C 321.5,359.833 321.5,360.167 321.5,360.5C 319.396,362.372 318.063,364.705 317.5,367.5C 317.167,367.5 316.833,367.5 316.5,367.5C 315.167,367.5 313.833,367.5 312.5,367.5C 311.282,366.839 309.949,366.172 308.5,365.5C 308.058,364.261 307.391,363.261 306.5,362.5C 305.833,361.5 305.167,360.5 304.5,359.5 Z"/></g>
<g><path style="opacity:1" fill="#051119" d="M 321.5,360.5 C 331.348,360.173 341.014,360.506 350.5,361.5C 348.597,361.796 346.93,362.463 345.5,363.5C 342.284,363.345 339.617,364.345 337.5,366.5C 330.869,367.331 324.202,367.664 317.5,367.5C 318.063,364.705 319.396,362.372 321.5,360.5 Z"/></g>
<g><path style="opacity:1" fill="#040d15" d="M 355.5,361.5 C 368.323,360.505 381.323,360.171 394.5,360.5C 398.718,368.222 403.551,375.555 409,382.5C 409.528,383.816 409.028,384.483 407.5,384.5C 404.167,380.167 400.833,375.833 397.5,371.5C 387.347,370.506 377.014,370.172 366.5,370.5C 364.289,367.715 361.623,365.382 358.5,363.5C 357.5,362.833 356.5,362.167 355.5,361.5 Z"/></g>
<g><path style="opacity:1" fill="#34353b" d="M 394.5,359.5 C 396.199,359.34 397.866,359.506 399.5,360C 404.967,367.775 410.3,375.609 415.5,383.5C 413.365,385.369 410.698,386.036 407.5,385.5C 407.5,385.167 407.5,384.833 407.5,384.5C 409.028,384.483 409.528,383.816 409,382.5C 403.551,375.555 398.718,368.222 394.5,360.5C 394.5,360.167 394.5,359.833 394.5,359.5 Z"/></g>
<g><path style="opacity:1" fill="#80858d" d="M 306.5,362.5 C 307.391,363.261 308.058,364.261 308.5,365.5C 309.949,366.172 311.282,366.839 312.5,367.5C 302.59,367.061 292.924,365.561 283.5,363C 287.835,362.737 292.168,362.903 296.5,363.5C 296.343,362.127 296.51,360.793 297,359.5C 297.199,361.402 298.033,362.902 299.5,364C 301.657,364.078 303.657,364.245 305.5,364.5C 306.298,364.043 306.631,363.376 306.5,362.5 Z"/></g>
<g><path style="opacity:1" fill="#767f8a" d="M 345.5,363.5 C 343.064,364.871 340.397,365.871 337.5,366.5C 339.617,364.345 342.284,363.345 345.5,363.5 Z"/></g>
<g><path style="opacity:1" fill="#6b747e" d="M 337.5,366.5 C 333.797,368.055 329.797,368.722 325.5,368.5C 322.314,368.498 319.314,368.165 316.5,367.5C 316.833,367.5 317.167,367.5 317.5,367.5C 324.202,367.664 330.869,367.331 337.5,366.5 Z"/></g>
<g><path style="opacity:1" fill="#888d96" d="M 235.5,378.5 C 234.833,378.5 234.167,378.5 233.5,378.5C 229.863,375.694 226.696,372.361 224,368.5C 223.018,367.241 222.685,365.908 223,364.5C 227.003,369.335 231.17,374.002 235.5,378.5 Z"/></g>
<g><path style="opacity:1" fill="#3c3d43" d="M 366.5,370.5 C 377.014,370.172 387.347,370.506 397.5,371.5C 396.127,371.343 394.793,371.51 393.5,372C 387.5,376 381.5,380 375.5,384C 377.473,384.495 379.473,384.662 381.5,384.5C 379.052,385.473 376.385,385.806 373.5,385.5C 361.345,384.505 349.011,384.171 336.5,384.5C 339.24,382.947 341.907,381.114 344.5,379C 345.893,377.829 346.727,376.329 347,374.5C 347.414,374.957 347.914,375.291 348.5,375.5C 350.028,374.139 351.695,372.972 353.5,372C 357.766,370.502 360.766,371.668 362.5,375.5C 364.207,379.021 366.873,380.354 370.5,379.5C 368.88,376.596 367.547,373.596 366.5,370.5 Z"/></g>
<g><path style="opacity:1" fill="#a3a9b3" d="M 358.5,363.5 C 361.623,365.382 364.289,367.715 366.5,370.5C 367.547,373.596 368.88,376.596 370.5,379.5C 366.873,380.354 364.207,379.021 362.5,375.5C 363.573,374.749 363.74,373.749 363,372.5C 361.22,370.707 359.387,369.04 357.5,367.5C 358.246,366.264 358.579,364.93 358.5,363.5 Z"/></g>
<g><path style="opacity:1" fill="#979ea7" d="M 139.5,362.5 C 138.394,370.123 137.727,377.79 137.5,385.5C 136.532,387.607 136.198,389.941 136.5,392.5C 136.167,392.5 135.833,392.5 135.5,392.5C 135.889,385.83 136.389,379.164 137,372.5C 137.149,368.867 137.982,365.534 139.5,362.5 Z"/></g>
<g><path style="opacity:1" fill="#797e86" d="M 118.5,370.5 C 118.404,376.373 117.737,382.04 116.5,387.5C 116.321,381.596 116.988,375.929 118.5,370.5 Z"/></g>
<g><path style="opacity:1" fill="#aeb4be" d="M 397.5,371.5 C 400.833,375.833 404.167,380.167 407.5,384.5C 407.5,384.833 407.5,385.167 407.5,385.5C 405.585,385.784 403.919,385.451 402.5,384.5C 400.757,381.25 398.423,378.416 395.5,376C 393.541,376.097 391.875,376.93 390.5,378.5C 389.71,379.401 388.71,380.068 387.5,380.5C 385.205,381.475 383.205,382.808 381.5,384.5C 379.473,384.662 377.473,384.495 375.5,384C 381.5,380 387.5,376 393.5,372C 394.793,371.51 396.127,371.343 397.5,371.5 Z M 390.5,378.5 C 391.167,378.5 391.833,378.5 392.5,378.5C 393.958,382.217 392.625,383.717 388.5,383C 387.748,382.329 387.414,381.496 387.5,380.5C 388.71,380.068 389.71,379.401 390.5,378.5 Z"/></g>
<g><path style="opacity:1" fill="#44464b" d="M 402.5,384.5 C 398.614,383.426 395.28,381.426 392.5,378.5C 391.833,378.5 391.167,378.5 390.5,378.5C 391.875,376.93 393.541,376.097 395.5,376C 398.423,378.416 400.757,381.25 402.5,384.5 Z"/></g>
<g><path style="opacity:1" fill="#0a141c" d="M 236.5,379.5 C 239.694,380.758 243.027,381.424 246.5,381.5C 251.217,383.238 256.217,383.904 261.5,383.5C 248.344,384.496 235.01,384.829 221.5,384.5C 220.661,383.359 219.994,382.026 219.5,380.5C 225.128,379.505 230.794,379.171 236.5,379.5 Z"/></g>
<g><path style="opacity:1" fill="#5a5d65" d="M 326.5,384.5 C 304.816,384.753 283.149,384.419 261.5,383.5C 256.217,383.904 251.217,383.238 246.5,381.5C 271.15,382.43 295.816,382.763 320.5,382.5C 320.351,381.448 320.517,380.448 321,379.5C 321.667,380.833 322.333,380.833 323,379.5C 323.49,380.793 323.657,382.127 323.5,383.5C 324.791,383.263 325.791,383.596 326.5,384.5 Z"/></g>
<g><path style="opacity:1" fill="#2b2f35" d="M 261.5,383.5 C 283.149,384.419 304.816,384.753 326.5,384.5C 329.833,384.5 333.167,384.5 336.5,384.5C 349.011,384.171 361.345,384.505 373.5,385.5C 322.833,385.5 272.167,385.5 221.5,385.5C 221.5,385.167 221.5,384.833 221.5,384.5C 235.01,384.829 248.344,384.496 261.5,383.5 Z"/></g>
<g><path style="opacity:1" fill="#111920" d="M 392.5,378.5 C 395.28,381.426 398.614,383.426 402.5,384.5C 403.919,385.451 405.585,385.784 407.5,385.5C 410.698,386.036 413.365,385.369 415.5,383.5C 431.089,384.484 446.756,384.817 462.5,384.5C 464.781,384.077 466.448,384.744 467.5,386.5C 385.665,386.167 303.998,386.501 222.5,387.5C 221.662,387.158 221.328,386.492 221.5,385.5C 272.167,385.5 322.833,385.5 373.5,385.5C 376.385,385.806 379.052,385.473 381.5,384.5C 383.205,382.808 385.205,381.475 387.5,380.5C 387.414,381.496 387.748,382.329 388.5,383C 392.625,383.717 393.958,382.217 392.5,378.5 Z"/></g>
<g><path style="opacity:1" fill="#020f17" d="M 137.5,385.5 C 139.833,385.5 142.167,385.5 144.5,385.5C 144.5,389.833 144.5,394.167 144.5,398.5C 141.833,398.5 139.167,398.5 136.5,398.5C 136.5,396.5 136.5,394.5 136.5,392.5C 136.198,389.941 136.532,387.607 137.5,385.5 Z"/></g>
<g><path style="opacity:0.986" fill="#000c15" d="M 467.5,386.5 C 467.864,390.378 467.864,394.378 467.5,398.5C 388.5,398.5 309.5,398.5 230.5,398.5C 234.647,397.675 238.981,397.175 243.5,397C 244.672,395.132 244.505,393.298 243,391.5C 237.355,390.648 231.688,389.648 226,388.5C 224.93,388.528 224.097,388.861 223.5,389.5C 222.662,389.158 222.328,388.492 222.5,387.5C 303.998,386.501 385.665,386.167 467.5,386.5 Z"/></g>
<g><path style="opacity:0.923" fill="#1f2328" d="M 226.5,398.5 C 226.5,398.167 226.5,397.833 226.5,397.5C 227.833,397.833 229.167,398.167 230.5,398.5C 309.5,398.5 388.5,398.5 467.5,398.5C 467.082,399.222 466.416,399.722 465.5,400C 460.177,400.499 454.844,400.666 449.5,400.5C 449.5,402.5 449.5,404.5 449.5,406.5C 448.532,404.393 448.198,402.059 448.5,399.5C 444.167,399.5 439.833,399.5 435.5,399.5C 435.5,402.167 435.5,404.833 435.5,407.5C 434.532,405.393 434.198,403.059 434.5,400.5C 418.497,400.333 402.497,400.5 386.5,401C 385.872,403.939 385.205,406.772 384.5,409.5C 384.5,406.167 384.5,402.833 384.5,399.5C 380.167,399.5 375.833,399.5 371.5,399.5C 350.327,399.169 329.327,399.503 308.5,400.5C 281.167,399.833 253.833,399.167 226.5,398.5 Z"/></g>
<g><path style="opacity:1" fill="#030e16" d="M 80.5,385.5 C 92.1667,385.5 103.833,385.5 115.5,385.5C 115.5,386.833 115.5,388.167 115.5,389.5C 115.387,394.518 115.053,399.518 114.5,404.5C 112.396,404.201 110.396,404.534 108.5,405.5C 110.045,406.452 111.712,406.785 113.5,406.5C 113.5,407.833 113.5,409.167 113.5,410.5C 112.894,423.442 111.227,436.109 108.5,448.5C 99.1667,448.5 89.8333,448.5 80.5,448.5C 84.2315,447.804 88.0648,447.138 92,446.5C 93.6017,431.124 95.435,415.791 97.5,400.5C 91.8236,400.666 86.1569,400.499 80.5,400C 79.1764,395.067 79.1764,390.234 80.5,385.5 Z"/></g>
<g><path style="opacity:1" fill="#06121a" d="M 135.5,399.5 C 138.5,399.5 141.5,399.5 144.5,399.5C 144.5,401.167 144.5,402.833 144.5,404.5C 141.5,404.5 138.5,404.5 135.5,404.5C 135.5,402.833 135.5,401.167 135.5,399.5 Z"/></g>
<g><path style="opacity:1" fill="#393a3f" d="M 226.5,398.5 C 253.833,399.167 281.167,399.833 308.5,400.5C 311.258,401.377 313.924,402.544 316.5,404C 328.674,404.169 340.674,404.669 352.5,405.5C 352.5,406.167 352.167,406.5 351.5,406.5C 340.828,406.333 330.161,406.5 319.5,407C 321.79,409.75 322.79,412.916 322.5,416.5C 321.872,421.149 321.539,425.816 321.5,430.5C 320.495,441.875 319.161,453.208 317.5,464.5C 316.469,466.961 315.802,469.627 315.5,472.5C 303.833,472.5 292.167,472.5 280.5,472.5C 281.935,464.555 282.935,456.555 283.5,448.5C 284.219,446.236 284.552,443.903 284.5,441.5C 277.323,443.67 269.99,445.337 262.5,446.5C 260.97,446.64 259.97,447.307 259.5,448.5C 229.833,448.5 200.167,448.5 170.5,448.5C 170.631,447.624 170.298,446.957 169.5,446.5C 166.574,445.547 163.907,444.213 161.5,442.5C 158.942,440.101 156.942,437.268 155.5,434C 152.118,433.824 148.785,433.324 145.5,432.5C 148.086,431.52 150.753,431.187 153.5,431.5C 153.5,430.5 153.5,429.5 153.5,428.5C 166.957,432.362 180.624,433.195 194.5,431C 212.785,427.549 223.452,416.715 226.5,398.5 Z"/></g>
<g><path style="opacity:0.999" fill="#071219" d="M 308.5,400.5 C 329.327,399.503 350.327,399.169 371.5,399.5C 371.5,400.167 371.5,400.833 371.5,401.5C 364.325,399.264 357.992,400.598 352.5,405.5C 340.674,404.669 328.674,404.169 316.5,404C 313.924,402.544 311.258,401.377 308.5,400.5 Z"/></g>
<g><path style="opacity:1" fill="#35363b" d="M 371.5,399.5 C 375.833,399.5 380.167,399.5 384.5,399.5C 384.5,402.833 384.5,406.167 384.5,409.5C 383.746,419.195 382.746,428.862 381.5,438.5C 380.584,438.982 379.584,439.315 378.5,439.5C 374.911,438.352 371.244,437.685 367.5,437.5C 367.5,436.5 367.5,435.5 367.5,434.5C 368.264,423.388 369.597,412.388 371.5,401.5C 371.5,400.833 371.5,400.167 371.5,399.5 Z"/></g>
<g><path style="opacity:1" fill="#36373c" d="M 449.5,406.5 C 451.244,419.45 452.577,432.45 453.5,445.5C 453.5,447.167 453.5,448.833 453.5,450.5C 448.633,450.882 443.966,450.215 439.5,448.5C 438.02,434.849 436.687,421.182 435.5,407.5C 435.5,404.833 435.5,402.167 435.5,399.5C 439.833,399.5 444.167,399.5 448.5,399.5C 448.198,402.059 448.532,404.393 449.5,406.5 Z"/></g>
<g><path style="opacity:1" fill="#4c565f" d="M 114.5,404.5 C 114.795,406.735 114.461,408.735 113.5,410.5C 113.5,409.167 113.5,407.833 113.5,406.5C 111.712,406.785 110.045,406.452 108.5,405.5C 110.396,404.534 112.396,404.201 114.5,404.5 Z"/></g>
<g><path style="opacity:1" fill="#071017" d="M 134.5,406.5 C 138.167,406.5 141.833,406.5 145.5,406.5C 146.087,412.195 146.92,417.861 148,423.5C 149.076,426.079 150.909,427.746 153.5,428.5C 153.5,429.5 153.5,430.5 153.5,431.5C 150.753,431.187 148.086,431.52 145.5,432.5C 148.785,433.324 152.118,433.824 155.5,434C 156.942,437.268 158.942,440.101 161.5,442.5C 153.448,438.426 144.948,435.426 136,433.5C 134.893,433.585 133.893,433.919 133,434.5C 132.434,436.723 131.6,438.723 130.5,440.5C 131.054,428.935 132.387,417.602 134.5,406.5 Z"/></g>
<g><path style="opacity:1" fill="#000d15" d="M 351.5,406.5 C 342.269,415.45 332.269,423.45 321.5,430.5C 321.539,425.816 321.872,421.149 322.5,416.5C 322.79,412.916 321.79,409.75 319.5,407C 330.161,406.5 340.828,406.333 351.5,406.5 Z"/></g>
<g><path style="opacity:0.999" fill="#000c15" d="M 367.5,434.5 C 367.5,435.5 367.5,436.5 367.5,437.5C 371.244,437.685 374.911,438.352 378.5,439.5C 379.584,439.315 380.584,438.982 381.5,438.5C 379.892,450.132 378.392,461.798 377,473.5C 372.599,474.467 368.099,474.8 363.5,474.5C 364.424,460.984 365.758,447.65 367.5,434.5 Z"/></g>
<g><path style="opacity:0.99" fill="#051018" d="M 283.5,448.5 C 282.566,449.568 282.232,450.901 282.5,452.5C 277.849,452.494 273.849,453.827 270.5,456.5C 268.521,451.663 264.854,448.997 259.5,448.5C 259.97,447.307 260.97,446.64 262.5,446.5C 269.99,445.337 277.323,443.67 284.5,441.5C 284.552,443.903 284.219,446.236 283.5,448.5 Z"/></g>
<g><path style="opacity:0.58" fill="#181c20" d="M 161.5,442.5 C 163.907,444.213 166.574,445.547 169.5,446.5C 170.298,446.957 170.631,447.624 170.5,448.5C 157.167,448.5 143.833,448.5 130.5,448.5C 130.5,447.5 130.5,446.5 130.5,445.5C 133.663,446.963 136.663,446.63 139.5,444.5C 147.617,447.445 155.951,448.112 164.5,446.5C 163.476,445.148 162.476,443.815 161.5,442.5 Z"/></g>
<g><path style="opacity:1" fill="#586878" d="M 130.5,440.5 C 130.5,442.167 130.5,443.833 130.5,445.5C 130.5,446.5 130.5,447.5 130.5,448.5C 143.833,448.5 157.167,448.5 170.5,448.5C 200.167,448.5 229.833,448.5 259.5,448.5C 264.854,448.997 268.521,451.663 270.5,456.5C 272.447,464.771 269.447,470.604 261.5,474C 201.5,474.667 141.5,474.667 81.5,474C 71.0701,469.033 68.9035,461.533 75,451.5C 76.7409,450.242 78.5742,449.242 80.5,448.5C 89.8333,448.5 99.1667,448.5 108.5,448.5C 108.203,452.767 108.536,456.934 109.5,461C 115.5,461.667 121.5,461.667 127.5,461C 128.694,454.093 129.694,447.26 130.5,440.5 Z"/></g>
<g><path style="opacity:0.995" fill="#010d15" d="M 453.5,445.5 C 454.537,454.08 455.87,462.747 457.5,471.5C 457.167,472.167 456.833,472.833 456.5,473.5C 452.541,474.66 448.541,474.827 444.5,474C 444,473.5 443.5,473 443,472.5C 441.796,464.495 440.629,456.495 439.5,448.5C 443.966,450.215 448.633,450.882 453.5,450.5C 453.5,448.833 453.5,447.167 453.5,445.5 Z"/></g>
<g><path style="opacity:0.998" fill="#27282c" d="M 283.5,448.5 C 282.935,456.555 281.935,464.555 280.5,472.5C 292.167,472.5 303.833,472.5 315.5,472.5C 315.802,469.627 316.469,466.961 317.5,464.5C 317.743,467.883 317.076,471.049 315.5,474C 303.833,474.667 292.167,474.667 280.5,474C 279.788,466.789 280.455,459.622 282.5,452.5C 282.232,450.901 282.566,449.568 283.5,448.5 Z"/></g>
</svg>
